<?xml version="1.0"?>
<svg xmlns="http://www.w3.org/2000/svg" version="1.2" baseProfile="tiny" width="800" height="114" viewBox="0 0 800 114" stroke-linecap="round" stroke-linejoin="round">
<g id="layer">
<path d="M 546.84 33.91 547.19 38.83 550.19 44.16 545.78 46.72 534.61 51.12 522.1 59.1 509.07 62.06 505.91 61.63 504.05 62.17 486.82 66.26 476.78 74.24 450.53 81.8 433.71 79.15 389.82 76.69 361.32 79.15 334.66 85.69 302.87 83.85 250.17 82.21 226.38 88.96 197.26 89.37 153.58 86.92 72.78 90.6 64.78 80.17 52.47 69.94 8.79 52.55 1 46.21 4.28 41.5 8.59 36.39 51.24 38.84 74.83 41.71 75.44 47.03 70.93 50.71 90.82 56.44 109.28 63.6 125.07 63.6 163.21 65.44 201.77 67.69 226.17 65.85 245.04 61.76 248.73 56.03 241.96 45.8 253.24 42.53 272.52 41.71 298.36 40.28 313.12 41.71 325.63 52.76 327.07 56.44 340.4 61.76 384.9 61.76 410.13 60.94 434.94 53.98 461.8 49.28 489.08 43.96 501.79 31.48 506.51 23.09 522.51 14.09 549.37 9.79 571.31 5.5 601.26 3.04 625.04 1 639.4 3.04 639.4 5.09 632.69 6.81 613.87 14.09 571.31 20.23 562.52 22.02 548.88 27.24 546.84 33.91 Z" fill="#8f8"/>
<path d="M 763.4 113 761.58 112.11 735.35 95.46 741.91 91.19 757.83 93.64 780.68 93.64 793.1 90.38 795.39 89.2 799 88.35 799 113 763.4 113 Z" fill="#888"/>
</g>
</svg>