<?xml version="1.0"?>
<svg xmlns="http://www.w3.org/2000/svg" version="1.2" baseProfile="tiny" width="800" height="75" viewBox="0 0 800 75" stroke-linecap="round" stroke-linejoin="round">
<g id="layer">
<path d="M 558.44 23.61 560.86 19.29 570.31 13.95 586.19 11.39 599.16 8.84 616.86 7.38 630.92 6.17 639.4 7.38 639.4 8.6 635.43 9.62 624.31 13.95 599.16 17.59 593.96 18.65 585.9 21.76 584.69 25.72 584.9 28.64 586.67 31.81 585.95 32.23 584.07 33.33 577.46 35.94 570.07 40.68 562.37 42.44 560.5 42.19 559.4 42.51 549.22 44.94 543.28 49.68 527.77 54.17 517.83 52.59 491.89 51.13 475.04 52.59 459.29 56.48 440.5 55.39 409.35 54.42 395.29 58.43 378.08 58.67 352.26 57.21 304.5 59.4 299.78 53.2 292.5 47.12 266.69 36.79 262.08 33.03 264.02 30.23 266.57 27.19 291.78 28.65 305.72 30.35 306.08 33.51 303.41 35.7 315.17 39.1 326.08 43.36 335.41 43.36 357.96 44.45 380.74 45.79 395.17 44.69 406.32 42.26 408.5 38.86 404.5 32.78 411.17 30.84 422.56 30.35 437.83 29.5 446.56 30.35 453.95 36.92 454.8 39.1 462.68 42.26 488.98 42.26 503.89 41.78 518.56 37.64 534.43 34.85 550.55 31.69 558.07 24.28 558.44 23.61 Z" fill="#8f8"/>
<path d="M 72.03 11.79 70.39 11.03 66.09 10.79 68.15 12.91 73 13.95 75.33 14.03 75.66 14.19 82.94 16.32 88.81 20.87 93.78 22.33 104.45 22.33 115.72 22.39 122.87 23.06 127.3 25.01 130.39 27.44 123.48 29.14 118.63 30.29 114.69 33.09 130.39 31.26 137.06 31.75 145.12 33.21 149.14 34.73 147.84 35.64 152.09 38.43 146.63 41.53 137.6 45.12 127.42 43.72 118.45 41.41 111.06 38.98 103.6 36.55 97.78 34.73 88.69 32.9 79.66 32.05 70.09 30.96 59.36 28.23 53.97 24.28 40.51 22.57 31 21.6 17.36 21.3 4.15 19.6 1 16.38 7.12 12.73 28.57 12.67 36.7 9.08 54.33 5.2 66.45 2.89 84.51 1 101.42 5.86 114.15 6.05 124.21 8.48 135.84 9.94 154.57 9.63 179.72 13.16 174.63 16.44 181.72 19.17 181.48 23 174.69 24.46 167.18 27.25 160.08 29.38 157.82 30 155.48 30.05 147.36 28.95 140.21 28.04 135.6 26.52 134.09 23.24 129.12 20.87 125.12 20.57 118.57 19.29 113.18 19.11 103.78 19.41 96.94 19.41 91.48 18.44 89.36 15.65 85.06 13.03 78.39 12.37 72.03 11.79 Z" fill="#8f8"/>
<path d="M 715.31 74 711.61 72.17 696.11 62.28 699.99 59.75 709.4 61.2 722.9 61.2 730.24 59.27 731.59 58.56 737.73 57.11 744.48 56.75 746.94 57.66 748.78 59.11 746.53 61.11 740.8 64.22 738.75 66.06 737.45 68.76 739.67 70.41 748.68 70.78 755.22 68.93 761.77 70.41 764.63 68.56 767.5 61.57 776.09 61.2 781 57.21 787.96 56.12 789.18 55.04 794.91 55.04 796.96 56.48 799 56.22 799 74 715.31 74 Z" fill="#888"/>
</g>
</svg>