<?xml version="1.0"?>
<svg xmlns="http://www.w3.org/2000/svg" version="1.2" baseProfile="tiny" width="800" height="636" viewBox="0 0 800 636" stroke-linecap="round" stroke-linejoin="round">
<g id="layer">
<path d="M 368.37 329.48 392.06 300.19 455.01 301.44 368.37 329.48 Z M 505.11 285.22 513.33 247.24 666 233.15 505.11 285.22 Z" fill-rule="evenodd" fill="#8f8"/>
<path d="M 199.21 529.33 134 474.26 319.07 345.43 368.37 329.48 344.46 359.04 162.94 470.9 199.21 529.33 Z M 455.01 301.44 505.11 285.22 501.4 302.35 455.01 301.44 Z" fill-rule="evenodd" fill="#f88"/>
<path d="M 513.33 247.24 316.19 265.43 548.59 106.67 540.41 116.78 556.58 147.67 529.14 174.21 513.33 247.24 Z" fill="#f88"/>
<path d="M 548.59 106.67 548.7 106.74 552.51 98.98 555.82 90.54 560.95 83.6 565.17 76.36 571.8 70.33 577.23 61.29 581.75 52.54 587.48 44.1 595.62 35.96 605.88 29.63 614.92 29.33 627.28 29.93 638.74 30.83 647.49 35.06 661.66 37.77 672.81 42.29 685.78 48.32 699.65 54.05 709.9 57.37 717.44 59.18 723.77 59.48 735.23 54.96 749.7 49.83 758.75 48.32 767.79 45.01 780.46 40.78 791.61 38.98 799 39.74 799 635 680.53 635 677.26 634.48 667.35 634.82 666.07 635 583.6 635 580.17 633.29 567.5 630.82 556.59 623.79 543.57 619.65 528.79 618.51 514.71 614.37 506.62 607.69 492.54 600.29 475.65 597.83 446.44 605.93 417.94 609.8 398.58 610.85 379.23 602.76 350.37 597.13 338.11 584.15 327.3 563.27 319.75 552.79 311.31 547.86 295.82 547.51 281.39 543.99 271.89 534.13 262.04 531.67 251.13 536.6 236.7 537.65 199.21 529.33 162.94 470.9 344.46 359.04 368.37 329.48 455.01 301.44 501.4 302.35 505.11 285.22 666 233.15 513.33 247.24 529.14 174.21 556.58 147.67 540.41 116.78 548.59 106.67 Z" fill="#888"/>
<path d="M 548.59 106.67 316.19 265.43 1 407.62 1 1 799 1 799 39.74 791.61 38.98 780.46 40.78 767.79 45.01 758.75 48.32 749.7 49.83 735.23 54.96 723.77 59.48 717.44 59.18 709.9 57.37 699.65 54.05 685.78 48.32 672.81 42.29 661.66 37.77 647.49 35.06 638.74 30.83 627.28 29.93 614.92 29.33 605.88 29.63 595.62 35.96 587.48 44.1 581.75 52.54 577.23 61.29 571.8 70.33 565.17 76.36 560.95 83.6 555.82 90.54 552.51 98.98 548.7 106.74 548.59 106.67 Z M 79.6 635 149.3 531.91 199.21 529.33 236.7 537.65 251.13 536.6 262.04 531.67 271.89 534.13 281.39 543.99 295.82 547.51 311.31 547.86 319.75 552.79 327.3 563.27 338.11 584.15 350.37 597.13 379.23 602.76 398.58 610.85 417.94 609.8 446.44 605.93 475.65 597.83 492.54 600.29 506.62 607.69 514.71 614.37 528.79 618.51 543.57 619.65 556.59 623.79 567.5 630.82 580.17 633.29 583.6 635 79.6 635 Z M 666.07 635 667.35 634.82 677.26 634.48 680.53 635 666.07 635 Z" fill-rule="evenodd" fill="#888"/>
</g>
</svg>