<svg width="24" height="24" viewBox="0 0 24 24" fill="none" xmlns="http://www.w3.org/2000/svg">
  <!-- Ship Hull -->
  <path d="M4 14C4 13.45 4.45 13 5 13H19C19.55 13 20 13.45 20 14V18C20 18.55 19.55 19 19 19H5C4.45 19 4 18.55 4 18V14Z" fill="currentColor"/>
  <!-- Main Sail -->
  <path d="M12 13L12 4C12 3.45 12.45 3 13 3C13.55 3 14 3.45 14 4V13" stroke="currentColor" stroke-width="2" stroke-linecap="round" fill="currentColor"/>
  <!-- Small Sail -->
  <path d="M8 13L8 7C8 6.45 8.45 6 9 6C9.55 6 10 6.45 10 7V13" stroke="currentColor" stroke-width="2" stroke-linecap="round" fill="currentColor"/>
  <!-- Mast -->
  <path d="M12 4L12 13" stroke="currentColor" stroke-width="2" stroke-linecap="round"/>
  <!-- Waves -->
  <path d="M2 20C3 21 4 21 5 20C6 19 7 19 8 20C9 21 10 21 11 20" stroke="currentColor" stroke-width="1.5" stroke-linecap="round" fill="none"/>
  <path d="M13 20C14 21 15 21 16 20C17 19 18 19 19 20C20 21 21 21 22 20" stroke="currentColor" stroke-width="1.5" stroke-linecap="round" fill="none"/>
</svg>