<svg width="24" height="24" viewBox="0 0 24 24" fill="none" xmlns="http://www.w3.org/2000/svg">
  <!-- Walking Person -->
  <circle cx="6" cy="5" r="1.5" fill="currentColor"/>
  <path d="M6 6.5L6 12M4 9L8 9M6 12L5 15M6 12L7 15" stroke="currentColor" stroke-width="1.5" stroke-linecap="round"/>
  <!-- Arrow -->
  <path d="M9 8.5L11 8.5L13 8.5" stroke="currentColor" stroke-width="1.5" stroke-linecap="round" stroke-dasharray="2,2"/>
  <!-- Ship -->
  <path d="M14 13C14 12.45 14.45 12 15 12H21C21.55 12 22 12.45 22 13V16C22 16.55 21.55 17 21 17H15C14.45 17 14 16.55 14 16V13Z" fill="currentColor"/>
  <!-- Sail -->
  <path d="M17 12L17 8C17 7.45 17.45 7 18 7C18.55 7 19 7.45 19 8V12" stroke="currentColor" stroke-width="1.5" stroke-linecap="round" fill="currentColor"/>
  <!-- Wave line -->
  <path d="M13 18C14 19 15 19 16 18" stroke="currentColor" stroke-width="1" stroke-linecap="round" fill="none"/>
  <path d="M17 19C18 20 19 20 20 19" stroke="currentColor" stroke-width="1" stroke-linecap="round" fill="none"/>
</svg>