<svg width="24" height="24" viewBox="0 0 24 24" fill="none" xmlns="http://www.w3.org/2000/svg">
  <path d="M4 16C4 14.9 4.9 14 6 14H7C7.55 14 8 14.45 8 15V20C8 20.55 7.55 21 7 21H6C4.9 21 4 20.1 4 19V16Z" fill="currentColor"/>
  <path d="M16 16C16 14.9 16.9 14 18 14H19C19.55 14 20 14.45 20 15V20C20 20.55 19.55 21 19 21H18C16.9 21 16 20.1 16 19V16Z" fill="currentColor"/>
  <path d="M6 14L6 10C6 8.9 6.9 8 8 8H16C17.1 8 18 8.9 18 10V14" stroke="currentColor" stroke-width="2" stroke-linecap="round"/>
  <circle cx="7" cy="6" r="2" fill="currentColor"/>
  <circle cx="17" cy="6" r="2" fill="currentColor"/>
</svg>