<svg width="24" height="24" viewBox="0 0 24 24" fill="none" xmlns="http://www.w3.org/2000/svg">
  <path d="M8 8C8 6.9 8.9 6 10 6H12C12.55 6 13 6.45 13 7V9C13 9.55 12.55 10 12 10H10C8.9 10 8 9.1 8 8V8Z" fill="currentColor"/>
  <path d="M3 12C3 11.45 3.45 11 4 11H5C5.55 11 6 11.45 6 12V14C6 14.55 5.55 15 5 15H4C3.45 15 3 14.55 3 14V12Z" fill="currentColor"/>
  <path d="M18 12C18 11.45 18.45 11 19 11H20C20.55 11 21 11.45 21 12V14C21 14.55 20.55 15 20 15H19C18.45 15 18 14.55 18 14V12Z" fill="currentColor"/>
  <path d="M6 15L6 18C6 18.55 5.55 19 5 19H4C3.45 19 3 18.55 3 18V15" stroke="currentColor" stroke-width="2" stroke-linecap="round"/>
  <path d="M18 15L18 18C18 18.55 17.55 19 17 19H16C15.45 19 15 18.55 15 18V15" stroke="currentColor" stroke-width="2" stroke-linecap="round"/>
  <path d="M7 10L7 11M17 10L17 11" stroke="currentColor" stroke-width="2" stroke-linecap="round"/>
  <circle cx="11" cy="4" r="1.5" fill="currentColor"/>
</svg>