<?xml version="1.0"?>
<svg xmlns="http://www.w3.org/2000/svg" version="1.2" baseProfile="tiny" width="800" height="415" viewBox="0 0 800 415" stroke-linecap="round" stroke-linejoin="round">
<g id="layer">
<path d="M 334.91 283.42 331.03 284.65 323.64 290.62 323.64 290.65 308.02 295.27 304.43 311.33 302.33 330.58 285.06 332.82 252.6 335.73 245.83 329.13 245.01 329.97 239.12 328.55 235.87 324.14 232 320.48 226.86 318.65 219.61 315.87 214.86 313.7 211.61 312.62 206.39 311.06 203.55 310.92 200.57 309.16 196.16 307.6 190.47 306.59 187.49 305.5 184.51 304.15 180.78 303.47 177.8 302.79 173.74 301.37 169.2 300.62 165.88 299.74 162.22 298.59 158.42 297.3 155.65 296.69 152.12 296.28 148.94 295.54 144.6 294.99 140.74 294.66 137.08 294.45 133.83 294.05 131.53 293.03 129.16 292.76 117.23 293.57 109.1 294.05 100.43 289.5 99.55 287.67 96.02 287.54 93.86 288.55 88.37 287.54 83.42 282.12 78.61 272.49 68.31 268.46 64.55 267.34 61.91 266.39 58.35 263.81 53.71 261.03 49.38 258.42 47 257.64 45.48 257.54 43.11 256.66 39.25 255.34 36.43 254.19 32.44 252.63 30.24 251.44 26.98 250.39 25.02 249.92 23.32 249.88 19.4 248.83 14.62 247.61 11.16 247.31 8.27 247.14 4.93 246.7 1 245.04 8.73 238.17 10.08 224.73 10.82 199.04 26.07 177.83 41.92 170.23 96.53 175.86 131.63 175.66 169.1 168.61 188.27 170.3 188.59 172.6 219.81 171.22 257.14 162.47 278.88 160.28 280.92 157.04 298.91 154.99 301.82 160.45 298.56 170.37 295.44 180.5 293.17 181.78 294.2 184.98 298.82 197.03 313.5 201.19 312.44 208.14 302.6 213.33 306.6 239.68 307.02 256.52 315.14 261.24 323.2 263.75 339.46 269.44 339.45 269.87 337.53 270.76 332.66 273.94 334.48 276.58 339.23 278.11 339.17 280.59 336.38 281.47 334.91 283.42 Z" fill="#8f8"/>
<path d="M 302.88 378.07 313.79 380.83 314.35 391.11 322.71 396.64 326.04 401.88 326.54 404.43 326.04 406.84 325.19 408.19 323.21 409.61 321.79 410.1 318.53 410.31 315.77 411.02 310.88 414 294.24 408.76 295.3 380.48 302.88 378.07 Z" fill="#8f8"/>
<path d="M 236.02 71.51 205.42 57.48 192.88 25.52 202.02 7.95 223.69 4.12 256.27 1 257.99 4.17 300.76 6.46 320.94 9.15 320.94 16.24 307.63 19.28 301.89 15.88 292.47 20.13 285.88 23.46 286.8 26.58 289.28 29.7 291.33 30.48 291.55 32.46 293.67 34.52 293.32 35.23 291.48 35.51 286.73 34.17 284.25 32.75 283.19 30.91 281.28 31.26 281.7 34.09 285.39 35.72 288.78 37.14 290.27 38.7 288.15 40.97 289.07 42.81 290.13 44.65 290.41 47.56 288.71 47.84 285.39 47.84 281.99 46.71 280.64 45.22 277.74 45.29 274.34 44.72 270.44 43.24 265.84 41.04 268.81 44.3 264.35 45.08 265.13 46.42 267.75 46.28 271.64 45.79 275.04 48.13 277.81 50.11 279.86 50.04 280.99 51.74 281.21 52.59 280.57 54.08 279.01 54.22 276.04 54.01 274.83 53.16 271.57 53.16 268.74 53.37 263.85 53.37 265.62 54.86 269.16 54.86 273.84 54.86 275.4 56.13 275.61 57.98 275.47 59.53 273.13 60.03 272.92 61.8 269.16 62.79 262.44 64.78 259.6 64.07 255.21 61.8 250.04 59.96 242.39 67.12 236.02 71.51 Z" fill="#8f8"/>
<path d="M 287.44 149.25 229.07 162.71 226.81 148.82 233.18 145.42 230.21 140.89 226.95 140.75 224.26 136.21 230.07 136.07 236.16 138.19 237.43 134.93 230.63 133.8 222.98 130.82 191.68 119.77 191.11 118.49 191.82 116.94 197.34 116.79 210.09 118.78 210.66 122.18 218.88 121.75 219.58 119.06 223.27 119.06 223.13 121.47 227.8 123.17 232.05 121.05 232.76 124.16 238.28 124.16 248.77 123.74 252.45 122.6 245.93 120.05 236.3 118.21 226.95 116.23 212.08 111.41 215.62 107.86 236.16 105.45 253.58 106.59 279.22 108.71 299.2 112.54 312.94 119.63 313.65 126.71 308.69 127.99 305.71 130.4 300.05 130.54 297.5 132.67 292.96 132.95 288.86 135.08 282.2 136.07 288.15 137.77 292.82 143.86 287.44 149.25 Z" fill="#8f8"/>
<path d="M 799 179.24 788.63 179.79 784.57 180.74 778.06 181.55 776.71 179.52 775.56 179.92 775.49 181.48 767.49 181.14 758.48 182.36 757.26 179.24 755.1 178.36 756.59 179.92 756.59 181.48 747.51 182.02 743.24 182.43 741.14 180.6 739.17 179.18 740.53 182.02 737.21 182.43 732.47 182.29 730.3 179.58 729.82 182.5 724.54 182.16 720.81 179.18 720.88 182.16 717.49 181.96 714.38 180.13 714.38 181.96 702.05 182.7 696.35 182.02 694.8 180.6 694.46 182.23 682.87 182.5 680.43 181.75 680.3 182.97 670.07 183.58 663.7 184.46 660.51 183.99 657.6 184.6 650.21 184.06 662 176.06 663.97 177.62 668.3 175.38 670.2 172.74 673.32 171.45 677.52 172.74 677.18 174.91 671.69 176.33 673.59 178.02 675.15 178.3 674.61 180.74 681.85 180.67 686.39 179.52 686.8 178.02 690.73 178.09 690.93 180.06 696.69 179.18 703.13 180.26 712.75 178.43 723.46 177.48 728.74 175.52 730.5 171.99 733.21 169.96 733.42 165.42 738.36 164.6 739.24 166.98 737.34 168.33 738.43 170.91 740.46 170.91 740.53 173.89 747.91 172.94 752.79 170.77 752.25 173.14 757.94 173.14 763.16 172.06 773.39 176.53 799 179.24 Z" fill="#8f8"/>
<path d="M 798.12 184.73 761.6 188.46 734.91 188.73 713.43 187.18 703.26 189.68 697.51 189.62 691.14 191.11 674.27 193.28 653.26 192.26 649.88 187.45 660.65 187.31 669.66 186.97 678.53 186.36 683.41 184.94 688.22 184.94 688.7 187.45 690.8 185.01 699.27 185.14 709.5 184.8 709.23 186.23 712.07 184.4 725.89 184.4 725.56 185.96 726.98 184.06 737.82 183.65 736.53 185.75 738.7 184.53 752.66 184.67 755.16 183.85 768.04 183.92 767.43 185.01 769.39 183.79 778.74 183.85 778.88 184.87 780.57 184.87 783.15 184.12 798.12 184.73 Z" fill="#8f8"/>
<path d="M 724.07 29.78 723.73 30.93 719.32 31.27 717.9 33.91 706.25 37.71 701.71 37.23 701.16 38.86 701.03 41.23 695.34 42.66 694.73 46.18 692.02 47.47 691.61 49.3 686.94 51.87 683.89 52.28 681.92 51.26 679.48 51.94 679.48 54.65 682.4 56.42 682.19 60.89 677.79 63.19 675.82 66.04 668.1 67.53 665.59 59.4 665.59 54.99 673.39 50.86 676.98 49.57 680.09 47.67 675.62 49.37 671.96 50.04 670 51.74 665.53 53.23 666.61 49.77 668.3 48.42 669.93 46.79 666.75 48.21 664.98 51.06 663.9 54.31 659.29 52.89 656.65 50.93 659.63 46.99 661.66 45.16 661.6 41.57 657.06 41.77 650.49 39.13 650.69 36.83 658.01 35.06 662.55 34.59 668.71 33.1 672.44 32.89 676.1 30.86 681.25 31.27 682.6 29.44 688.7 29.37 694.59 29.3 697.98 27.61 701.91 29.64 705.3 29.91 709.23 29.3 714.38 28.96 715.8 27.67 717.36 27.81 718.37 28.35 722.44 28.35 724.07 29.78 Z" fill="#8f8"/>
<path d="M 460.71 82.17 462.74 84.75 465.32 85.5 469.31 88 471.55 88.21 477.04 93.09 477.17 94.72 474.73 97.56 465.45 96.21 462.27 93.22 457.66 90.99 454.34 90.44 452.98 87.73 449.19 87.19 442.14 85.84 441.13 84.68 440.45 85.9 438.42 86.04 435.3 82.04 433.47 81.36 432.66 78.72 436.52 78.92 437.67 79.87 441.2 79.4 447.5 78.24 454.2 77.84 459.49 80.82 460.71 82.17 Z" fill="#8f8"/>
<path d="M 303.98 142.4 299.33 135.9 303.73 132.6 310.46 130.4 317.33 128.77 326.33 122.68 370.81 151.09 362.69 163.84 377.89 206.93 365.78 214.16 358.55 222.81 345.73 218.41 333.83 213.17 332.77 206.79 337.87 205.44 333.27 196.37 338.58 191.77 336.38 187.16 321.65 183.55 335.53 174.12 310.95 172.63 311.38 168.6 323.28 157.47 313.29 157.47 312.51 150.81 318.24 144.92 313.01 142.02 303.98 142.4 Z" fill="#8f8"/>
<path d="M 595.66 295.5 594.03 296.51 592 297.9 589.59 298.04 592.2 298.34 595.08 296.48 598.54 295.6 601.55 295.06 603.68 295.84 603.75 296.24 602.94 297.06 604.57 296.75 606.26 296.89 606.56 298.78 609.88 299.56 606.26 301.8 604.53 303.29 601.04 303.77 600.67 304.85 602.02 304.99 600.77 306.58 601.14 311.19 601.31 312.14 598.1 312.55 597.42 313.66 595.99 313.77 593.93 314.61 593.72 313.8 593.05 315.09 590.44 316.85 587.4 316.33 587.29 315.29 587.8 313.87 588.88 312.38 591.01 311.87 592.44 310.61 590.2 311.6 588.78 311.9 588.78 309.7 590.54 308.21 591.05 307.05 588.61 308.95 586.71 308.95 586.64 309.46 588.1 309.46 588.34 311.9 587.25 312.34 586.98 313.87 585.19 313.93 586.71 314.92 585.32 316.86 584.65 317.05 583.19 317.53 580.89 317.36 580.28 316.51 579.73 317.49 577.7 316.71 577.26 316.44 577.26 315.77 577.8 314.95 579.4 314.85 580.99 313.02 579.12 314.31 577.77 313.93 577.4 312.85 577.36 314.27 576.35 315.19 575.85 315.78 572.18 316.41 572.15 315.12 569.88 314.99 569.1 313.93 572.48 310.92 576.82 309.22 579.6 308.95 580.55 309.9 580.72 308.88 582.55 307.26 585.36 306.58 585.63 305.33 588.07 305.12 589.12 304.17 586.54 304.48 587.29 302.55 585.9 304.14 583.09 306.07 582.34 304.75 581.36 307.6 577.43 308.65 576.65 306.48 575.63 308.51 573.91 309.6 571.16 311.39 568.49 310.68 570.21 308.68 571.87 307.5 569.81 308.65 566.93 308.82 566.39 307.05 569.6 305.5 571.74 303.7 573.67 303.97 575.67 302.38 578.34 302.24 581.26 298.89 577.84 301.23 574.92 301.67 574.28 301.06 573.5 302.75 568.93 303.73 569.03 305.12 564.73 304.75 567.44 301.5 570.21 299.56 572.28 299.5 573.57 297.63 575.74 296.65 578.75 296.65 581.43 294.58 584.92 291.4 587.56 291.36 592.98 292.79 595.69 293.06 595.66 295.5 Z" fill="#8f8"/>
</g>
</svg>