<?xml version="1.0"?>
<svg xmlns="http://www.w3.org/2000/svg" version="1.2" baseProfile="tiny" width="800" height="436" viewBox="0 0 800 436" stroke-linecap="round" stroke-linejoin="round">
<g id="layer">
<path d="M 10.44 305.17 14.63 298.19 29.17 278.2 31.9 264.58 22.81 255.49 10.09 196.45 16.45 167.38 48.26 129.23 50.08 100.16 108.77 73.33 118.21 85.58 335.74 106.02 366.76 163.33 465.94 140.62 521.48 177.03 605.51 182.43 641.22 236.14 626.07 282.28 546.01 307.16 494.07 317.97 400.6 345.74 355.94 362.67 306.89 361.59 261.56 326.89 179.58 345 117.19 329.5 70.66 306.43 10.44 305.17 Z" fill="#f88"/>
<path d="M 10.44 305.17 70.66 306.43 117.19 329.5 179.58 345 261.56 326.89 306.89 361.59 355.94 362.67 400.6 345.74 494.07 317.97 546.01 307.16 626.07 282.28 641.22 236.14 605.51 182.43 521.48 177.03 465.94 140.62 366.76 163.33 335.74 106.02 118.21 85.58 108.77 73.33 267.03 1 799 1 799 435 45.87 435 44.18 432.01 38.5 422.92 25.76 405.16 12.49 387.5 3.73 369.52 1.91 351.39 1 332.71 6.45 311.81 10.44 305.17 Z" fill="#888"/>
</g>
</svg>