<?xml version="1.0"?>
<svg xmlns="http://www.w3.org/2000/svg" version="1.2" baseProfile="tiny" width="800" height="1463" viewBox="0 0 800 1463" stroke-linecap="round" stroke-linejoin="round">
<g id="layer">
<path d="M 684.33 679.33 677.73 685.78 675.53 685.26 684.33 679.33 Z" fill="#8f8"/>
<path d="M 182.67 269.32 184.04 252.76 187.24 251.23 182.67 269.32 Z" fill="#8f8"/>
<path d="M 357.47 1198.85 353.41 1212.8 349.68 1218.5 357.47 1198.85 Z" fill="#8f8"/>
<path d="M 184.04 252.76 140.47 273.65 184.72 244.5 184.04 252.76 Z" fill="#f88"/>
<path d="M 677.73 685.78 698.37 690.69 676.16 687.31 677.73 685.78 Z" fill="#f88"/>
<path d="M 353.41 1212.8 359.9 1202.89 351.89 1218.02 353.41 1212.8 Z" fill="#f88"/>
<path d="M 1 289.73 1.16 289.71 1.5 289.65 1.84 289.59 2.18 289.51 2.51 289.43 2.84 289.34 3.16 289.24 3.46 289.14 3.77 289.04 4.07 288.92 4.36 288.8 4.63 288.67 4.89 288.52 5.07 288.39 5.24 288.25 5.4 288.1 5.54 287.94 5.68 287.79 5.82 287.62 5.95 287.45 6.06 287.26 6.17 287.08 6.28 286.89 6.4 286.71 6.54 286.53 6.67 286.38 6.82 286.24 6.97 286.09 7.14 285.96 7.31 285.83 7.5 285.73 7.78 285.62 8.07 285.53 8.38 285.45 8.7 285.39 9.02 285.34 9.34 285.3 9.69 285.26 10.04 285.23 10.4 285.21 10.77 285.21 11.13 285.21 11.49 285.22 11.84 285.24 12.19 285.26 12.54 285.29 12.89 285.33 13.24 285.38 13.58 285.44 13.72 285.47 13.86 285.5 13.99 285.53 14.13 285.57 14.26 285.6 14.39 285.65 14.53 285.69 14.67 285.74 14.8 285.8 14.93 285.85 15.06 285.91 15.18 285.97 15.3 286.03 15.42 286.1 15.53 286.16 15.64 286.23 15.74 286.31 15.84 286.39 16.68 287.28 17.43 288.21 18.1 289.2 18.7 290.21 19.27 291.22 19.78 292.24 20.25 293.36 20.66 294.49 20.99 295.63 21.33 296.77 21.75 297.89 22.23 299 22.75 299.99 23.33 300.97 23.94 301.94 24.63 302.89 25.4 303.77 26.27 304.6 26.4 304.69 26.54 304.78 26.7 304.86 26.86 304.93 27.02 305 27.19 305.07 27.37 305.13 27.55 305.2 27.74 305.25 27.93 305.3 28.12 305.35 28.31 305.39 28.5 305.44 28.69 305.48 28.88 305.51 29.07 305.55 29.26 305.57 29.45 305.59 30.1 305.62 30.76 305.63 31.41 305.61 32.07 305.57 32.72 305.53 33.36 305.48 34.03 305.39 34.69 305.29 35.34 305.18 36 305.06 36.66 304.98 37.32 304.92 37.94 304.89 38.55 304.88 39.18 304.88 39.8 304.92 40.41 304.98 41 305.09 41.32 305.18 41.63 305.29 41.93 305.42 42.23 305.57 42.52 305.71 42.8 305.87 43.09 306.05 43.38 306.23 43.66 306.42 43.92 306.62 44.18 306.83 44.44 307.04 44.68 307.24 44.92 307.45 45.14 307.67 45.36 307.88 45.57 308.11 45.76 308.33 45.86 308.46 45.95 308.59 46.03 308.72 46.11 308.86 46.18 308.99 46.25 309.13 46.31 309.27 46.36 309.42 46.41 309.56 46.46 309.71 46.5 309.85 46.55 310 46.6 310.14 46.65 310.29 46.7 310.43 46.75 310.58 46.8 310.72 46.85 310.87 57.3 340.86 23.76 348.54 19.49 349.21 18.24 349.76 17.81 350.75 18.96 355.46 18.29 360.19 8.53 366.97 5.75 369.22 2.86 369.68 1 369.84 1 289.73 Z" fill="#888"/>
<path d="M 401.07 452.08 407.33 447.04 414.92 442.23 427.8 437.33 436.93 430.31 449.42 422.72 475.95 423.06 490.75 419.7 505.64 415.03 514.51 413.33 522.17 411 527.75 408.79 532.17 403.12 537.55 398.51 547.35 396.97 551.87 393.65 556.39 391.49 576.19 383.03 594.15 380.61 606.85 377.99 615.97 375.49 625.58 371.26 637.75 368.35 650.57 366.79 661.43 364.73 683.63 357.09 691.8 351.27 707.85 344.5 719.72 338.4 705.01 361.17 699.63 375.83 696.27 384.33 695.02 392.79 695.02 403.89 695.6 409.46 698.19 420.42 702.13 431.18 702.52 436.9 700.69 442.9 699.82 448.09 705.49 458.42 704.34 463.28 699.15 466.06 690.02 470.05 685.12 473.51 684.93 478.84 685.22 484.37 688.48 500.47 688.12 505.94 685.6 510.29 683.29 512.53 681.01 516.03 680.63 521.99 680.63 527.08 677.94 544.19 676.64 549.44 676.21 554.47 683.89 575.33 685.05 580.61 684.76 585.9 683.99 591.66 683.51 597.19 684.18 602.28 686.2 607.57 690.62 616.46 691.97 621.45 694.47 649.08 694.32 653.31 692.11 659.34 690.53 662.2 687.69 665.32 687.4 666.84 689.52 670.49 689.9 672.65 688.94 674.88 684.33 679.33 675.53 685.26 677.73 685.78 676.16 687.31 672.11 686.45 670.56 686.11 665.56 684.61 658.66 683.51 650.36 682.31 640.06 682.41 633.06 683.51 624.93 685.28 622.75 686.22 615.76 688.44 611.23 689.56 607.13 689.77 599.92 688.78 593.42 687.93 588.17 688.09 583.37 688.94 578.9 690.22 536.32 685.78 405.02 593.6 415.08 583.31 421 570.65 420.9 569.13 420.75 566.42 420.66 564.47 420.59 562.53 420.56 560.92 420.61 559.31 420.71 558 421.02 556.74 421.42 556.17 421.86 555.6 422.17 554.76 422.58 553.98 423.44 553.51 424.42 553.1 425.22 552.71 425.89 552.24 426.44 551.25 426.7 550.17 426.64 547.7 426.46 545.21 426.58 543.98 426.93 542.79 427.04 541.85 427.39 540.45 427.64 538.23 429.39 536.33 431.77 535.23 434.37 534.51 436.37 529.23 438.87 526.2 439.79 523.75 440.04 521.5 440.27 520.23 439.12 518.33 438.71 517.9 437.47 516.58 435.24 515.03 429.59 514.3 422.92 514.3 422.04 514.11 421.44 513.98 421.42 512.93 422.54 511.38 425.24 510.17 425.3 509.23 424.94 508.36 423.97 507.75 422.72 507.34 419.58 506.88 416.46 506.4 414.96 505.85 413.7 505.08 412.92 504.2 412.62 503.27 412.29 502.33 412.24 501.43 411.29 500.28 411.15 499.19 409.46 495.67 407.77 492.14 406.16 490.67 404.18 489.47 400.64 488.4 397.1 487.34 395.72 486.51 394.61 485.5 394.36 485.1 394.28 484.7 394.77 483.07 395.4 481.77 396.3 480.42 396.56 478.43 397.47 477.32 398.24 476.23 397.85 474.85 397.26 473.43 397.26 472.82 397.42 472.23 399.24 470.03 401.27 467.86 401.75 467.06 402.06 466.23 402.11 465.44 401.98 464.64 401.59 463.7 401 462.81 398.12 460.6 395.94 458.39 396.25 457.34 397.03 456.28 398.53 454.65 400.2 453.09 401.07 452.08 Z" fill="#888"/>
<path d="M 1 489.76 2.7 489.35 15.48 485.22 31.14 481.18 34.77 484.93 42.33 494.32 48.42 499.8 50.53 500.95 51.43 503.55 52.97 505.24 53.09 508.03 54.76 510.11 68.67 518.87 70.6 520.36 71.77 521.94 71.67 523.12 71.27 524.94 69.07 526.53 66.52 527.77 64.29 529.13 63.21 531.54 62.98 534.23 63.12 535.58 63.65 536.86 64.64 537.79 65.92 538.56 68.45 539.7 71.13 540.32 74.44 539.64 77.47 538.31 80.71 542.59 89.31 548.46 95.84 551.46 102.03 553.12 104.94 553.29 107 552.84 108.71 551.3 110.44 549.87 113.22 549.8 115.9 549.67 117.1 548.76 121.95 547.35 135.47 547.09 138.87 547.93 147.26 552.92 143.83 555.13 133.04 556.4 128.79 558.34 119.49 561.27 117.12 563.03 116.03 566.55 116.92 572.13 120.9 577.73 127.5 579.82 131.28 583.53 133.77 589.49 141.14 595.13 142.49 598.84 146.84 600.57 151 604.37 172.3 622.68 104.87 672.71 1 655.79 1 489.76 Z" fill="#888"/>
<path d="M 552.33 134.78 552.44 123.38 553.19 117.32 555.68 108.73 556.44 99.59 553.84 83.97 550.38 80.29 549.73 76.51 550.92 72.4 555.36 70.51 562.38 68.46 565.84 63.65 571.9 58.4 576.44 55.59 578.17 47.59 578.17 42.46 627.35 1 728.78 1 730.86 11.6 732.62 16.67 735.86 18.7 745.27 19.89 755.86 25.73 755.97 29.7 753.05 32.19 752.35 36.86 753.92 38.92 765.54 38.56 767.32 38.92 768.29 40.59 766.78 46.02 767.21 48.83 772.24 53.38 772.19 55 770.4 57.32 762.62 62.73 762.46 65.02 765.16 66.89 770.89 68.29 782.46 66.4 786.35 67.59 790.85 71.85 799 73.35 792.89 78.89 793.11 84.67 794.12 87.47 793.92 92.02 789.32 97.7 782.62 99.75 779.81 101.94 777.75 106.46 776.19 111.4 771.51 112.79 767.7 116.65 756.73 116.51 748.67 117.54 746.08 120.62 747.7 122.13 755.1 127.59 750.82 139.65 745.81 155.78 738.62 161.95 731.51 167.98 724.45 168.76 717.26 171.49 702.78 168.76 689.53 163.08 683.53 159.59 676.29 157.08 667.85 159.76 660.37 163.68 649.91 161.65 641.77 159.66 634.09 157.74 627.17 153.77 623.98 149.55 617.25 148.26 609.36 142.84 600.87 140.01 585.85 137.55 577.68 135.12 552.33 134.78 Z" fill="#888"/>
<path d="M 345.52 316.49 342.71 316.92 340.01 318.76 337.35 320.4 334.37 320.34 330.46 320.39 324.61 322.01 317.63 322.87 315.52 322.61 313.49 322.03 309.73 319.78 305.93 317.69 303.7 317.5 300.34 317.72 251.55 315.7 182.67 269.32 187.24 251.23 184.04 252.76 184.72 244.5 184.91 237.98 190.87 236.55 196.27 235.69 204.26 233.06 212.51 229.95 222.71 223.99 229.01 224.26 244.61 224.93 251.18 223.31 251.32 223.28 252.26 224.1 252.89 225.45 254.17 227.03 254.96 229.31 255.03 233.66 254.28 239.89 255.29 242.7 257.88 244.05 263.73 245.14 268.61 246.82 272.49 248.91 274.57 251.19 275.38 253.89 273.32 257.86 270.64 261.9 270.4 262.96 270.58 263.93 272.5 265.36 275.1 266.26 279.33 265.99 283.16 265.97 284.98 268.4 286.61 271.3 287.59 272.02 288.74 272.46 292.62 271.92 296.69 271.01 300.17 270.94 303.2 271.56 306.86 275.59 308.77 280.71 308.41 284.62 308.41 288.37 310.38 290.11 312.69 291.81 314.49 295.15 316.47 298.31 320.17 300.63 324.58 302.2 327.09 302.53 329.69 302.49 332.5 301.81 335.09 301.49 337.99 303.63 340.82 306.3 345.02 307.58 348.45 309.04 348.82 311.11 348.1 313.38 346.19 315.71 345.52 316.49 Z" fill="#888"/>
<path d="M 719.72 338.4 707.85 344.5 691.8 351.27 683.63 357.09 661.43 364.73 650.57 366.79 637.75 368.35 625.58 371.26 615.97 375.49 606.85 377.99 594.15 380.61 576.19 383.03 556.39 391.49 551.87 393.65 547.35 396.97 537.55 398.51 532.17 403.12 527.75 408.79 522.17 411 514.51 413.33 505.64 415.03 490.75 419.7 475.95 423.06 449.42 422.72 436.93 430.31 427.8 437.33 414.92 442.23 407.33 447.04 401.07 452.08 401.17 450.89 400.67 450.12 400 449.65 398.92 449.2 395.69 446.83 395.14 446.12 394.88 445.38 394.68 444.6 394.54 443.81 394.42 442.99 394.66 442.17 394.31 440.6 393.18 433.78 391.85 432.22 391.11 431.88 390.31 431.21 389.59 430.58 388.95 429.92 388.43 429.26 388.13 428.58 393.75 424.83 398.77 420.77 399.45 419.4 400.24 418.19 402.62 417.64 405.26 417.24 407.2 416.43 408.33 415.45 406.58 413.99 404.14 412.33 403.65 411.26 403.72 410.25 408.81 407.51 415.24 405.05 416.81 404 417.71 402.83 416.64 401.54 415.41 400.19 415.93 399.09 416.42 398.02 414.72 396.17 412.58 394.3 411.63 392.26 411.25 390.1 411.77 387.37 412.68 384.62 413.85 381.33 415.03 377.69 414.02 373.97 412.44 370.65 412.97 369.44 413.35 368.49 413.45 368.25 412.35 366.31 410.94 364.35 410.28 362.29 410.15 360.2 410.48 359.11 411.12 358.11 413.28 356.53 415.36 354.94 416.17 353 417.42 343.78 422.9 338.64 431.35 334.63 434.26 333.12 437.74 332.17 442.75 331.99 447.44 331.52 449.17 329.87 450.92 328.22 458.85 326.89 467.45 327.3 469.63 327.74 471.69 328.46 474.42 330.12 477.2 331.64 478.68 331.97 480.19 331.97 494.91 324.98 503.68 324.7 512.57 324.58 518.7 323.02 523.91 320.44 526.52 315.91 529.19 311.5 533.31 310.44 535.28 308.36 536.45 306.24 537.49 304.21 535.53 302.99 533.18 301.76 532.29 300 532.19 298.11 532.95 296.59 534.23 295.19 537.3 292.79 540.86 290.73 542.01 289.16 554.24 289.21 566.17 288.8 602.21 275 623.11 262.89 628.23 260.58 637.45 259.57 645.46 261.88 653.74 263.54 666.5 263.83 669.6 265.09 673.85 270.31 687.69 271.97 691.8 270.56 692.04 271.22 695.12 279.54 707.8 290.3 723.95 302.6 731.83 311.54 733.75 317.69 731.06 325.18 726.73 332.77 719.72 338.4 Z" fill="#888"/>
<path d="M 1 369.84 2.86 369.68 5.75 369.22 8.53 366.97 18.29 360.19 18.96 355.46 17.81 350.75 18.24 349.76 19.49 349.21 23.76 348.54 165.56 342.19 161.8 355.04 155.61 358.91 152.73 364.67 153.81 366.62 159.43 368.03 164.76 373.14 165.27 376.5 164.08 379.48 157.02 385.13 155.3 390.51 146.56 397.68 143.32 400.63 143.39 409.21 148.91 415.75 155.69 419.28 161.06 422.82 148.1 427.9 137.92 431.41 123.98 431.31 111.01 433.95 96.21 440.2 76.79 442.07 63.72 449.14 55.75 460.57 48.73 469.27 38.54 479.55 31.14 481.18 15.48 485.22 2.7 489.35 1 489.76 1 369.84 Z" fill="#888"/>
<path d="M 1 123.83 2.55 121.54 2.65 117.65 1 117.1 1 72.8 4.98 72.63 9.1 72.83 17.44 78.42 23.19 83.77 29.31 87.96 33.23 91.53 36.3 89.18 37.71 86.83 39.16 85.88 41.92 85.86 46.25 87.34 56.82 91.27 61.11 95.9 66.05 99.45 73.54 99.5 80.19 97.28 88.29 97.51 94.21 100.21 97.85 104.54 104.68 106.31 111.96 104.22 116.37 98.64 121.12 97.5 127.84 97.34 134.41 98.26 143.85 103.08 146.85 108.55 154.4 110.46 158.21 107.89 161.73 106.91 182.23 109.79 180.78 111.31 180.12 111.86 180.27 112.5 178.77 113.65 173.08 115.94 170.74 119.09 169.38 119 169.26 120.41 170.86 125.24 173.71 130.24 175.96 135.16 174.63 139.32 173.12 143.49 173.38 145.49 174.39 147.3 176.53 148.7 179.14 149.45 185.05 147.99 191.13 146.27 193.93 146.86 196.79 147.65 200.82 147.53 204.25 147.84 205.53 150.43 206.68 153.39 209.91 155.39 213.82 156.56 215.63 156.51 217.42 156.11 220.52 154.63 223.65 153.33 225.27 153.24 226.8 153.51 230.87 156.46 233.9 160.31 235.39 164.05 236.92 167.77 240.09 170.48 242.91 173.21 242.81 174.81 242.87 176.24 243.93 176.54 245.02 176.83 245.68 180.51 246.11 184.46 247.53 185.57 249.39 186.44 255.08 188.3 261 189.84 261.14 192.01 259.66 196.78 261.91 202.65 260.82 205.42 253.32 211.39 251.93 213.07 250.81 217.58 251.07 220.55 251.2 221.98 251.32 223.28 251.18 223.31 244.61 224.93 229.01 224.26 222.71 223.99 212.51 229.95 204.26 233.06 196.27 235.69 190.87 236.55 184.91 237.98 184.72 244.5 140.47 273.65 130.72 266.72 128.41 264.95 126.8 263.09 125.71 261.9 125.39 258.77 125.37 257.37 125.37 256.71 125.36 256.33 125.36 256.14 124.94 255.75 123.39 254.29 122.94 252.97 120.11 253.46 116.56 253.76 110.68 253.5 104.9 250.47 97.6 244.16 96.12 242.3 94.55 240.54 90.92 238.75 87.11 237.04 84.67 234.91 82.13 233.12 78.85 232.72 75.42 233.03 71.66 234.25 67.9 235.45 63.94 235.67 59.97 235.22 54.62 233.33 49.71 230.64 47.69 228.75 45.57 227.12 38.03 226.36 29.94 226.18 27.03 225.57 24.39 224.57 22.71 223.35 21.63 221.91 22.07 218.58 24.32 215.08 22.52 213.28 22.72 211.13 25.67 209.23 31.27 207.63 32.32 206.33 31.42 202.23 29.15 201.55 24.77 201.23 20.87 201.38 17 201.6 13.45 201.83 10.72 201.3 7.75 200.38 2.7 198.45 1 197.71 1 123.83 Z" fill="#888"/>
<path d="M 292.78 1 292.47 3 295.6 8.59 296.74 11.51 295.01 14.43 296.63 18.37 294.79 23.78 289.97 28.67 287.17 32 283.23 36.2 281.88 40.03 278.2 40.89 275.2 41.68 273.18 41.9 271.19 42.5 269.84 43.97 269.09 46.59 267.22 48.73 266.37 49.33 265.83 49.7 264.33 51.35 267.37 54.77 267.22 56.19 266.02 57.8 264.89 58.96 264.39 60.92 264.26 62.13 264.24 63.43 262.63 64.96 260.91 66.48 260.43 68.22 259.82 69.88 256.28 72.03 252.04 73.84 239.88 76.62 229.28 80.51 225.14 86.34 221.34 92.53 219.37 93.84 217.05 94.88 212.28 95.99 207.75 97.27 204.28 100.69 200.73 103.9 194.86 104.58 188.83 105.15 185.35 107.25 182.23 109.79 161.73 106.91 158.21 107.89 154.4 110.46 146.85 108.55 143.85 103.08 134.41 98.26 127.84 97.34 121.12 97.5 116.37 98.64 111.96 104.22 104.68 106.31 97.85 104.54 94.21 100.21 88.29 97.51 80.19 97.28 73.54 99.5 66.05 99.45 61.11 95.9 56.82 91.27 46.25 87.34 41.92 85.86 39.16 85.88 37.71 86.83 36.3 89.18 33.23 91.53 29.31 87.96 23.19 83.77 17.44 78.42 9.1 72.83 4.98 72.63 1 72.8 1 1 292.78 1 Z" fill="#888"/>
<path d="M 151 604.37 146.84 600.57 142.49 598.84 141.14 595.13 133.77 589.49 131.28 583.53 127.5 579.82 120.9 577.73 116.92 572.13 116.03 566.55 117.12 563.03 119.49 561.27 128.79 558.34 133.04 556.4 143.83 555.13 147.26 552.92 166.48 533.88 180.32 523.37 179.47 520.09 170.45 509.98 169.81 505.95 175.84 501.21 188.69 496.29 203.42 495.83 207.23 500.07 210.34 502.89 205.68 507.13 203.84 510.52 208.22 512.93 215.71 512.93 221.65 514.48 229.98 514.21 237.02 512.55 257.33 508.09 265.6 506.11 272.77 506.33 275.6 507.12 282.38 509.8 291.8 508.13 302.05 503.39 314.23 499.37 317.43 496.85 319.29 480.21 320.44 470.47 322.88 467.27 333.77 465.22 344.47 460.45 354.59 452.89 363.75 446.42 377.21 437.77 383.04 433.22 388.13 428.58 388.43 429.26 388.95 429.92 389.59 430.58 390.31 431.21 391.11 431.88 391.85 432.22 393.18 433.78 394.31 440.6 394.66 442.17 394.42 442.99 394.54 443.81 394.68 444.6 394.88 445.38 395.14 446.12 395.69 446.83 398.92 449.2 400 449.65 400.67 450.12 401.17 450.89 401.07 452.08 400.2 453.09 398.53 454.65 397.03 456.28 396.25 457.34 395.94 458.39 398.12 460.6 401 462.81 401.59 463.7 401.98 464.64 402.11 465.44 402.06 466.23 401.75 467.06 401.27 467.86 399.24 470.03 397.42 472.23 397.26 472.82 397.26 473.43 397.85 474.85 398.24 476.23 397.47 477.32 396.56 478.43 396.3 480.42 395.4 481.77 394.77 483.07 394.28 484.7 394.36 485.1 394.61 485.5 395.72 486.51 397.1 487.34 400.64 488.4 404.18 489.47 406.16 490.67 407.77 492.14 409.46 495.67 411.15 499.19 411.29 500.28 412.24 501.43 412.29 502.33 412.62 503.27 412.92 504.2 413.7 505.08 414.96 505.85 416.46 506.4 419.58 506.88 422.72 507.34 423.97 507.75 424.94 508.36 425.3 509.23 425.24 510.17 422.54 511.38 421.42 512.93 421.44 513.98 422.04 514.11 422.92 514.3 429.59 514.3 435.24 515.03 437.47 516.58 438.71 517.9 439.12 518.33 440.27 520.23 440.04 521.5 439.79 523.75 438.87 526.2 436.37 529.23 434.37 534.51 431.77 535.23 429.39 536.33 427.64 538.23 427.39 540.45 427.04 541.85 426.93 542.79 426.58 543.98 426.46 545.21 426.64 547.7 426.7 550.17 426.44 551.25 425.89 552.24 425.22 552.71 424.42 553.1 423.44 553.51 422.58 553.98 422.17 554.76 421.86 555.6 421.42 556.17 421.02 556.74 420.71 558 420.61 559.31 420.56 560.92 420.59 562.53 420.66 564.47 420.75 566.42 420.9 569.13 421 570.65 414.86 581.54 286.35 672.22 151 604.37 Z" fill="#888"/>
<path d="M 417.97 988.15 404.17 991.41 387.63 997.55 377.78 1005.14 362.77 1010.5 357.9 1009.86 352.77 1008.96 341.88 1009.15 335.59 1008.48 333.54 1008.23 332.32 1008.26 331.21 1008.54 329.78 1010.07 328.38 1011.67 326.93 1012.26 325.32 1012.52 323.71 1012.37 322.16 1011.91 319.45 1010.06 316.75 1008.51 311.88 1009.16 306.75 1010.26 304.01 1010.06 301.33 1009.47 299.62 1008.62 297.91 1007.89 296.74 1007.41 295.87 1006.91 295.07 1006.19 294.81 1005.75 293.92 1004.21 296.34 1002.16 298.47 1000.36 297.92 998.23 297.87 998.04 297.36 994.31 295.28 991.58 293.95 990.83 292.36 990.4 288.7 990.48 284.99 990.67 283.19 990.38 281.59 989.78 280.36 988.69 279.59 987.36 279.9 985.23 280.09 983.18 279.15 982.14 277.78 981.38 273.43 980.34 269.03 980.46 266.19 982.09 263.41 984.07 260.67 985.13 257.77 985.74 251.26 985.86 245.44 984.47 242.92 981.13 240.52 977.45 237.74 975.97 234.54 974.95 231.22 974.59 228.19 973.97 226.6 971.8 225 969.79 220.93 969.79 216.4 970.25 214.41 969.89 212.56 969.22 211.29 968.16 210.01 967.22 204.34 967.25 199.54 967.76 194.96 967.11 189.73 965.59 186.12 961.31 186.25 957.08 190.86 952.92 197.33 950.1 204.7 949.14 211.49 949.71 207.13 944.59 196.5 936.32 192.33 933.79 182.98 931.04 175.93 920.53 176.7 915.02 182.98 909.96 197.59 902.05 200.6 899.77 214.89 893.18 224.88 889.52 237.44 888.63 247.82 885.17 258.71 890.55 269.09 893.18 280.55 892.51 292.41 897.02 315.67 908.42 328.55 911.24 338.86 911.63 350.52 909.77 357.57 906.5 369.42 899.45 405.17 899.02 412.78 896.75 533.35 851.99 553.93 863.7 498.49 916.41 432.48 911.45 401.38 928.69 417.97 988.15 Z" fill="#888"/>
<path d="M 135.55 1055.65 149 1057.7 153.1 1058.39 172.39 1063.42 193.21 1062.74 200.92 1064.2 212.43 1065.53 233.44 1065.53 237.23 1064.47 252.86 1067.13 270.29 1065.34 275.28 1065.5 292.2 1066.36 302.26 1064.73 310.26 1063.77 320 1061.4 331.74 1061.72 351.43 1076.86 352.47 1087.51 350.1 1085.27 340.68 1084.25 337.35 1084.79 334.02 1087.19 330.05 1087.03 323.51 1084.44 317.74 1083.48 307.75 1082.84 300.38 1084.18 293.01 1082.39 284.11 1082.45 280.68 1084.84 280.04 1085.01 273.92 1082.84 267.27 1082.19 261.36 1082.13 253.48 1086.06 230.83 1085.65 226.12 1084.99 221.8 1083.85 214.75 1083.5 199.5 1086.16 188.36 1085.33 175.7 1084.54 162.73 1082.86 157.83 1083.74 148.6 1085.28 136.52 1086.1 131.4 1087.11 125.25 1082.08 116.47 1077.86 106.03 1072.41 112.24 1058.48 116.53 1056.33 124.54 1056.04 135.55 1055.65 Z" fill="#888"/>
<path d="M 31.14 481.18 38.54 479.55 48.73 469.27 55.75 460.57 63.72 449.14 76.79 442.07 96.21 440.2 111.01 433.95 123.98 431.31 137.92 431.41 148.1 427.9 161.06 422.82 160.92 427.34 162.61 440.86 173.32 456.97 194 475.2 196.64 482.55 200.73 484.53 203.56 488.06 203.42 495.83 188.69 496.29 175.84 501.21 169.81 505.95 170.45 509.98 179.47 520.09 180.32 523.37 166.48 533.88 147.26 552.92 138.87 547.93 135.47 547.09 121.95 547.35 117.1 548.76 115.9 549.67 113.22 549.8 110.44 549.87 108.71 551.3 107 552.84 104.94 553.29 102.03 553.12 95.84 551.46 89.31 548.46 80.71 542.59 77.47 538.31 74.44 539.64 71.13 540.32 68.45 539.7 65.92 538.56 64.64 537.79 63.65 536.86 63.12 535.58 62.98 534.23 63.21 531.54 64.29 529.13 66.52 527.77 69.07 526.53 71.27 524.94 71.67 523.12 71.77 521.94 70.6 520.36 68.67 518.87 54.76 510.11 53.09 508.03 52.97 505.24 51.43 503.55 50.53 500.95 48.42 499.8 42.33 494.32 34.77 484.93 31.14 481.18 Z" fill="#888"/>
<path d="M 252.04 73.84 256.28 72.03 259.82 69.88 260.43 68.22 260.91 66.48 262.63 64.96 264.24 63.43 264.26 62.13 264.39 60.92 264.89 58.96 266.02 57.8 267.22 56.19 267.37 54.77 264.33 51.35 265.83 49.7 266.37 49.33 267.22 48.73 269.09 46.59 269.84 43.97 271.19 42.5 273.18 41.9 275.2 41.68 278.2 40.89 281.88 40.03 283.23 36.2 287.17 32 289.97 28.67 294.79 23.78 296.63 18.37 295.01 14.43 296.74 11.51 295.6 8.59 292.47 3 292.78 1 504.57 1 486.86 12.81 451.83 20.43 434.86 31.56 420.85 41.41 408.48 48.32 394.48 54.51 386.48 56.13 374.78 54.76 368.11 54.99 362.14 55.56 357.41 56.7 354.35 58.41 352.66 62.49 350.74 63.53 344.94 65.2 343.42 66.72 341.95 69.86 340.1 70.96 338.75 71.15 333.66 71.15 330 71.55 327.29 72.97 326.32 74.1 325.92 77.03 325.61 77.5 323.61 78.18 320.62 79.32 314.52 79.09 310.13 77.56 305.15 75.73 293.23 73.2 291.49 73.26 289.93 73.69 288.86 73.99 287.74 75.01 284.84 75.89 282.41 76.24 278.14 76.03 274.23 75.16 269.68 73.53 268.17 73.65 266.35 74.33 265.35 74.38 262.27 74.1 260.27 74.55 256.42 75.02 252.04 73.84 Z" fill="#888"/>
<path d="M 288.91 373.33 283.45 371.5 272.98 370.35 261.25 368.76 251.26 366.75 243.69 364.2 232.74 357.01 252.38 318.33 300.34 317.72 303.7 317.5 305.93 317.69 309.73 319.78 313.49 322.03 315.52 322.61 317.63 322.87 324.61 322.01 330.46 320.39 334.37 320.34 337.35 320.4 340.01 318.76 342.71 316.92 345.52 316.49 351.25 318.42 358.6 319.2 363.04 320.04 367.17 321.36 371.01 322.62 373.5 325.88 376.11 327.19 378.94 328.12 387.14 328.31 391.31 331.27 401.93 335.64 404.02 337.41 406.18 339.06 412.53 340.35 414.14 341.49 417.42 343.78 416.17 353 415.36 354.94 413.28 356.53 411.12 358.11 410.48 359.11 410.15 360.2 410.28 362.29 410.94 364.35 412.35 366.31 413.45 368.25 413.35 368.49 412.97 369.44 412.44 370.65 414.02 373.97 402.77 375.42 394.88 375.9 379.22 376.76 370.76 381.52 365.86 383.25 366.15 388.68 367.3 394.16 363.55 394.73 321.08 394.69 314.54 396.18 308.01 393.58 308.01 389.64 313.21 383.6 314.25 380.96 307.65 374.65 303.41 374.27 295.97 374.08 288.91 373.33 Z" fill="#888"/>
<path d="M 339.32 693.22 378.71 647.17 445.96 666.43 425.91 701.64 363.09 713.44 339.32 693.22 Z" fill="#888"/>
<path d="M 199.54 967.76 204.34 967.25 210.01 967.22 211.29 968.16 212.56 969.22 214.41 969.89 216.4 970.25 220.93 969.79 225 969.79 226.6 971.8 228.19 973.97 231.22 974.59 234.54 974.95 237.74 975.97 240.52 977.45 242.92 981.13 245.44 984.47 251.26 985.86 257.77 985.74 260.67 985.13 263.41 984.07 266.19 982.09 269.03 980.46 273.43 980.34 277.78 981.38 279.15 982.14 280.09 983.18 279.9 985.23 279.59 987.36 280.36 988.69 281.59 989.78 283.19 990.38 284.99 990.67 288.7 990.48 292.36 990.4 293.95 990.83 295.28 991.58 297.36 994.31 297.87 998.04 297.92 998.23 298.47 1000.36 296.34 1002.16 293.92 1004.21 294.81 1005.75 295.07 1006.19 295.87 1006.91 296.74 1007.41 297.91 1007.89 299.62 1008.62 301.33 1009.47 304.01 1010.06 306.75 1010.26 311.88 1009.16 316.75 1008.51 319.45 1010.06 322.16 1011.91 323.71 1012.37 325.32 1012.52 326.93 1012.26 328.38 1011.67 329.78 1010.07 331.21 1008.54 332.32 1008.26 333.54 1008.23 335.59 1008.48 341.88 1009.15 352.77 1008.96 357.9 1009.86 362.77 1010.5 377.78 1005.14 387.63 997.55 404.17 991.41 417.97 988.15 423.03 988.15 426.57 991.56 392.33 1061.16 331.74 1061.72 320 1061.4 310.26 1063.77 302.26 1064.73 292.2 1066.36 275.28 1065.5 270.29 1065.34 252.86 1067.13 237.23 1064.47 233.44 1065.53 212.43 1065.53 200.92 1064.2 193.21 1062.74 172.39 1063.42 153.1 1058.39 149 1057.7 135.55 1055.65 138.96 1051.17 147.8 1041.31 148.87 1037.76 149.27 1033.27 150.3 1024.87 152.16 1023.62 158.47 1021.83 166.99 1020.08 172.82 1017.09 180.76 1007.32 181.82 998.06 183.1 985.7 186.42 980.58 188.15 976.86 191.89 972.02 196.8 969.85 199.54 967.76 Z" fill="#888"/>
<path d="M 1 708.68 96.93 727.39 128.15 750.14 128.43 751.85 128.47 753.51 127.39 755.17 126.69 756.7 129.17 758.7 131.84 760.76 131.31 763.52 130.59 766.39 131.92 768.23 133.32 770.07 132.94 773.06 132.87 775.84 134.2 776.86 136.03 777.58 139.41 777.96 142.6 778.49 144.67 780.37 146.54 782.57 150.11 785.72 154.17 788.17 155.09 788.36 156.03 788.33 158.55 787.14 161.06 786.06 162.8 786.2 164.27 786.83 164.68 787.68 164.73 788.69 163.87 793.75 161.9 798.64 159.71 801.63 157.61 804.62 157.19 805.76 157.19 806.88 158.24 808.17 159.79 809.26 161.39 810.09 163.15 810.64 168.93 810.61 174.16 811.01 176.52 813.3 178.01 816.3 178.29 817.35 178.25 818.39 177.63 819.35 177.02 820.3 177.23 822.04 177.51 823.81 173.34 833.34 169.21 842.37 175.05 846.54 175.77 848.21 168.85 852.74 163.61 856.79 151.65 867.26 113.98 855.6 90.4 848.43 66.85 848.24 53.62 852.65 9.67 851.69 1 851.58 1 708.68 Z" fill="#888"/>
<path d="M 351.89 1218.02 351 1219.91 346.74 1223.61 337.54 1227.54 309.93 1230.15 279.56 1228.88 265.28 1222.12 265.81 1221.51 265.8 1220.89 265.56 1220.23 263.92 1218.03 261.34 1214.7 260.74 1211 260.08 1208.2 257.78 1206.12 256.88 1205.75 255.94 1205.45 254.86 1205.18 253.76 1204.95 248.43 1203.62 243.62 1200.78 243.03 1197.84 244.94 1195.77 245.73 1192.09 246.57 1189.76 248.25 1188.23 248.74 1187.78 249.42 1184.7 247.24 1180.55 242.73 1178.02 240.3 1177.03 235.62 1172.86 228.9 1169.95 218.83 1169.2 211.63 1168.92 207.32 1169.4 202.19 1171.91 197.9 1175.57 193.64 1176.81 190.29 1176.57 188.3 1176.08 187.64 1175.69 187.34 1174.65 187.14 1173.61 187.33 1172.31 187.61 1171.01 187.74 1169.73 187.75 1168.45 187.54 1167.21 187.21 1165.98 186.83 1164.74 186.34 1163.54 185.73 1162.42 184.96 1161.38 184.62 1161.03 184.22 1160.71 183.77 1160.41 183.29 1160.14 182.8 1159.9 182.29 1159.71 180.99 1159.5 179.66 1159.41 178.26 1159.44 176.88 1159.42 175.83 1159.24 175 1158.87 174.75 1158.11 174.82 1157.23 175.16 1156.12 175.57 1155.01 175.81 1153.93 175.86 1152.85 175.73 1152.39 175.52 1151.94 175.26 1151.5 174.96 1151.06 174.64 1150.65 174.29 1150.24 173.68 1149.6 173.03 1148.98 172.32 1148.39 171.58 1147.82 170.84 1147.26 170.06 1146.73 167.79 1145.44 165.45 1144.24 163 1143.13 160.62 1141.96 158.56 1140.65 156.76 1139.13 156.56 1138.86 156.39 1138.56 156.19 1137.91 156.07 1137.26 156.18 1136.36 156.44 1135.47 156.81 1134.58 157.18 1133.68 157.44 1132.79 157.6 1131.89 157.59 1131.25 157.5 1130.62 157.37 1129.97 157.17 1129.34 156.91 1128.75 156.56 1128.18 156.2 1127.77 155.8 1127.38 154.78 1126.7 153.72 1126.12 152.54 1125.82 151.3 1125.66 149.99 1125.6 148.69 1125.51 147.6 1125.27 146.64 1124.87 145.97 1124.23 145.49 1123.45 145.1 1122.54 144.85 1121.59 144.67 1120.66 144.64 1119.74 144.82 1118.9 145.13 1118.08 145.59 1117.26 146.05 1116.44 146.37 1115.62 146.56 1114.78 146.53 1114.29 146.42 1113.8 146.26 1113.3 146.04 1112.81 145.8 1112.34 145.52 1111.88 144.76 1110.76 143.91 1109.67 142.96 1108.61 139.64 1105.83 134.37 1104.13 132.55 1103.04 132.21 1101.96 132.25 1100.78 132.62 1099.42 133.12 1098.07 133.35 1096.99 133.69 1095.96 134.39 1095 135.31 1094.16 136.44 1093.5 133.9 1090.19 131.4 1087.11 136.52 1086.1 148.6 1085.28 157.83 1083.74 162.73 1082.86 175.7 1084.54 188.36 1085.33 199.5 1086.16 214.75 1083.5 221.8 1083.85 226.12 1084.99 230.83 1085.65 253.48 1086.06 261.36 1082.13 267.27 1082.19 273.92 1082.84 280.04 1085.01 280.68 1084.84 284.11 1082.45 293.01 1082.39 300.38 1084.18 307.75 1082.84 317.74 1083.48 323.51 1084.44 330.05 1087.03 334.02 1087.19 337.35 1084.79 340.68 1084.25 350.1 1085.27 352.47 1087.51 358.76 1089.34 355.38 1127.6 377.71 1138.76 379 1161.49 389.67 1165.57 386.78 1183.61 351.29 1179.53 357.47 1198.85 349.68 1218.5 353.41 1212.8 351.89 1218.02 Z" fill="#888"/>
<path d="M 488.77 1051.4 556.68 995.07 596.07 1012.23 591.11 1056.86 560.41 1094.74 494.58 1094.92 488.77 1051.4 Z" fill="#888"/>
<path d="M 261 189.84 255.08 188.3 249.39 186.44 247.53 185.57 246.11 184.46 245.68 180.51 245.02 176.83 243.93 176.54 242.87 176.24 242.81 174.81 242.91 173.21 240.09 170.48 236.92 167.77 235.39 164.05 233.9 160.31 230.87 156.46 226.8 153.51 225.27 153.24 223.65 153.33 220.52 154.63 217.42 156.11 215.63 156.51 213.82 156.56 209.91 155.39 206.68 153.39 205.53 150.43 204.25 147.84 200.82 147.53 196.79 147.65 193.93 146.86 191.13 146.27 185.05 147.99 179.14 149.45 176.53 148.7 174.39 147.3 173.38 145.49 173.12 143.49 174.63 139.32 175.96 135.16 173.71 130.24 170.86 125.24 169.26 120.41 169.38 119 170.74 119.09 173.08 115.94 178.77 113.65 180.27 112.5 180.12 111.86 180.78 111.31 182.23 109.79 185.35 107.25 188.83 105.15 194.86 104.58 200.73 103.9 204.28 100.69 207.75 97.27 212.28 95.99 217.05 94.88 219.37 93.84 221.34 92.53 225.14 86.34 229.28 80.51 239.88 76.62 252.04 73.84 256.42 75.02 260.27 74.55 262.27 74.1 265.35 74.38 266.35 74.33 268.17 73.65 269.68 73.53 274.23 75.16 278.14 76.03 282.41 76.24 284.84 75.89 287.74 75.01 288.86 73.99 289.93 73.69 291.49 73.26 293.23 73.2 305.15 75.73 310.13 77.56 314.52 79.09 320.62 79.32 323.61 78.18 325.61 77.5 325.92 77.03 326.32 74.1 327.29 72.97 330 71.55 333.66 71.15 338.75 71.15 340.1 70.96 341.95 69.86 343.42 66.72 344.94 65.2 350.74 63.53 352.66 62.49 354.35 58.41 357.41 56.7 362.14 55.56 368.11 54.99 374.78 54.76 386.48 56.13 394.48 54.51 408.48 48.32 420.85 41.41 453.84 24.08 557.95 8.29 578.17 42.46 578.17 47.59 576.44 55.59 571.9 58.4 565.84 63.65 562.38 68.46 555.36 70.51 550.92 72.4 549.73 76.51 550.38 80.29 553.84 83.97 556.44 99.59 555.68 108.73 553.19 117.32 552.44 123.38 552.33 134.78 527.14 135.97 489.3 137.76 484.38 138.95 482.69 141.01 481.94 142.88 481.53 144.57 481.11 146.3 480.66 148.66 480.62 151.87 478.21 154.35 475.22 156.87 474.67 159.51 473.93 162.01 473.29 162.75 472.64 163.29 471.92 163.81 471.16 164.29 470.18 164.89 468.46 165.76 461.46 168.27 456 169.08 450.52 168.81 445.94 166.57 441.52 164.74 439.81 165.33 438.03 166.17 433.8 166.81 429.44 166.9 421.91 166.32 414.8 164.71 412.99 163.87 407.81 162.27 404.03 162.49 397.33 164.62 390.59 167.5 387.2 166.36 386.12 164.29 388.24 158.09 383.41 152.85 380.39 151.39 369.27 151.54 360.82 152.51 354.4 154.72 351.56 156.67 348.67 161.28 343.59 161.09 336.82 158.38 325.07 159.39 314.62 158.27 302.87 156.29 295.37 156.83 289.1 159.21 280.74 164.72 270.5 167.72 264.78 171.81 263.51 175.79 263.51 182.42 260.48 184.87 261 189.84 Z" fill="#888"/>
<path d="M 251.32 223.28 251.2 221.98 251.07 220.55 250.81 217.58 251.93 213.07 253.32 211.39 260.82 205.42 261.91 202.65 259.66 196.78 261.14 192.01 261 189.84 260.48 184.87 263.51 182.42 263.51 175.79 264.78 171.81 270.5 167.72 280.74 164.72 289.1 159.21 295.37 156.83 302.87 156.29 314.62 158.27 325.07 159.39 336.82 158.38 343.59 161.09 348.67 161.28 351.56 156.67 354.4 154.72 360.82 152.51 369.27 151.54 380.39 151.39 383.41 152.85 388.24 158.09 386.12 164.29 387.2 166.36 390.59 167.5 397.33 164.62 404.03 162.49 407.81 162.27 412.99 163.87 414.8 164.71 421.91 166.32 429.44 166.9 433.8 166.81 438.03 166.17 439.81 165.33 441.52 164.74 445.94 166.57 450.52 168.81 456 169.08 461.46 168.27 468.46 165.76 470.18 164.89 471.16 164.29 471.92 163.81 472.64 163.29 473.29 162.75 473.93 162.01 474.67 159.51 475.22 156.87 478.21 154.35 480.62 151.87 480.66 148.66 481.11 146.3 481.53 144.57 481.94 142.88 482.69 141.01 484.38 138.95 489.3 137.76 527.14 135.97 552.33 134.78 577.68 135.12 585.85 137.55 600.87 140.01 609.36 142.84 617.25 148.26 623.98 149.55 627.17 153.77 634.09 157.74 641.77 159.66 649.91 161.65 660.37 163.68 667.85 159.76 676.29 157.08 683.53 159.59 689.53 163.08 702.78 168.76 717.26 171.49 724.45 168.76 731.51 167.98 732.89 168.39 734.26 169.31 735.06 170.25 736.56 173.18 739.81 179.37 745.19 186.15 742.33 193.37 751.27 201.23 752.49 208 749.1 213.66 748.82 215.72 753.5 219.21 749.46 223.61 750.62 226.71 756.82 230.96 756.1 240.4 748.74 250.78 741.97 256.83 719.77 259.43 705.78 264.62 691.8 270.56 687.69 271.97 673.85 270.31 669.6 265.09 666.5 263.83 653.74 263.54 645.46 261.88 637.45 259.57 628.23 260.58 623.11 262.89 602.21 275 566.17 288.8 554.24 289.21 542.01 289.16 540.86 290.73 537.3 292.79 534.23 295.19 532.95 296.59 532.19 298.11 532.29 300 533.18 301.76 535.53 302.99 537.49 304.21 536.45 306.24 535.28 308.36 533.31 310.44 529.19 311.5 526.52 315.91 523.91 320.44 518.7 323.02 512.57 324.58 503.68 324.7 494.91 324.98 480.19 331.97 478.68 331.97 477.2 331.64 474.42 330.12 471.69 328.46 469.63 327.74 467.45 327.3 458.85 326.89 450.92 328.22 449.17 329.87 447.44 331.52 442.75 331.99 437.74 332.17 434.26 333.12 431.35 334.63 422.9 338.64 417.42 343.78 414.14 341.49 412.53 340.35 406.18 339.06 404.02 337.41 401.93 335.64 391.31 331.27 387.14 328.31 378.94 328.12 376.11 327.19 373.5 325.88 371.01 322.62 367.17 321.36 363.04 320.04 358.6 319.2 351.25 318.42 345.52 316.49 346.19 315.71 348.1 313.38 348.82 311.11 348.45 309.04 345.02 307.58 340.82 306.3 337.99 303.63 335.09 301.49 332.5 301.81 329.69 302.49 327.09 302.53 324.58 302.2 320.17 300.63 316.47 298.31 314.49 295.15 312.69 291.81 310.38 290.11 308.41 288.37 308.41 284.62 308.77 280.71 306.86 275.59 303.2 271.56 300.17 270.94 296.69 271.01 292.62 271.92 288.74 272.46 287.59 272.02 286.61 271.3 284.98 268.4 283.16 265.97 279.33 265.99 275.1 266.26 272.5 265.36 270.58 263.93 270.4 262.96 270.64 261.9 273.32 257.86 275.38 253.89 274.57 251.19 272.49 248.91 268.61 246.82 263.73 245.14 257.88 244.05 255.29 242.7 254.28 239.89 255.03 233.66 254.96 229.31 254.17 227.03 252.89 225.45 252.26 224.1 251.32 223.28 Z" fill="#888"/>
<path d="M 1 197.71 2.7 198.45 7.75 200.38 10.72 201.3 13.45 201.83 17 201.6 20.87 201.38 24.77 201.23 29.15 201.55 31.42 202.23 32.32 206.33 31.27 207.63 25.67 209.23 22.72 211.13 22.52 213.28 24.32 215.08 22.07 218.58 21.63 221.91 22.71 223.35 24.39 224.57 27.03 225.57 29.94 226.18 38.03 226.36 45.57 227.12 47.69 228.75 49.71 230.64 54.62 233.33 59.97 235.22 63.94 235.67 67.9 235.45 71.66 234.25 75.42 233.03 78.85 232.72 82.13 233.12 84.67 234.91 87.11 237.04 90.92 238.75 94.55 240.54 96.12 242.3 97.6 244.16 104.9 250.47 110.68 253.5 116.56 253.76 120.11 253.46 122.94 252.97 124.94 255.75 125.36 256.33 125.56 256.61 125.54 256.69 125.37 257.37 125.19 258.11 125.39 258.77 125.71 261.9 126.8 263.09 128.41 264.95 130.72 266.72 127.9 298.82 58.52 320.85 46.85 310.87 46.8 310.72 46.75 310.58 46.7 310.43 46.65 310.29 46.6 310.14 46.55 310 46.5 309.85 46.46 309.71 46.41 309.56 46.36 309.42 46.31 309.27 46.25 309.13 46.18 308.99 46.11 308.86 46.03 308.72 45.95 308.59 45.86 308.46 45.76 308.33 45.57 308.11 45.36 307.88 45.14 307.67 44.92 307.45 44.68 307.24 44.44 307.04 44.18 306.83 43.92 306.62 43.66 306.42 43.38 306.23 43.09 306.05 42.8 305.87 42.52 305.71 42.23 305.57 41.93 305.42 41.63 305.29 41.32 305.18 41 305.09 40.41 304.98 39.8 304.92 39.18 304.88 38.55 304.88 37.94 304.89 37.32 304.92 36.66 304.98 36 305.06 35.34 305.18 34.69 305.29 34.03 305.39 33.36 305.48 32.72 305.53 32.07 305.57 31.41 305.61 30.76 305.63 30.1 305.62 29.45 305.59 29.26 305.57 29.07 305.55 28.88 305.51 28.69 305.48 28.5 305.44 28.31 305.39 28.12 305.35 27.93 305.3 27.74 305.25 27.55 305.2 27.37 305.13 27.19 305.07 27.02 305 26.86 304.93 26.7 304.86 26.54 304.78 26.4 304.69 26.27 304.6 25.4 303.77 24.63 302.89 23.94 301.94 23.33 300.97 22.75 299.99 22.23 299 21.75 297.89 21.33 296.77 20.99 295.63 20.66 294.49 20.25 293.36 19.78 292.24 19.27 291.22 18.7 290.21 18.1 289.2 17.43 288.21 16.68 287.28 15.84 286.39 15.74 286.31 15.64 286.23 15.53 286.16 15.42 286.1 15.3 286.03 15.18 285.97 15.06 285.91 14.93 285.85 14.8 285.8 14.67 285.74 14.53 285.69 14.39 285.65 14.26 285.6 14.13 285.57 13.99 285.53 13.86 285.5 13.72 285.47 13.58 285.44 13.24 285.38 12.89 285.33 12.54 285.29 12.19 285.26 11.84 285.24 11.49 285.22 11.13 285.21 10.77 285.21 10.4 285.21 10.04 285.23 9.69 285.26 9.34 285.3 9.02 285.34 8.7 285.39 8.38 285.45 8.07 285.53 7.78 285.62 7.5 285.73 7.31 285.83 7.14 285.96 6.97 286.09 6.82 286.24 6.67 286.38 6.54 286.53 6.4 286.71 6.28 286.89 6.17 287.08 6.06 287.26 5.95 287.45 5.82 287.62 5.68 287.79 5.54 287.94 5.4 288.1 5.24 288.25 5.07 288.39 4.89 288.52 4.63 288.67 4.36 288.8 4.07 288.92 3.77 289.04 3.46 289.14 3.16 289.24 2.84 289.34 2.51 289.43 2.18 289.51 1.84 289.59 1.5 289.65 1.16 289.71 1 289.73 1 197.71 Z" fill="#888"/>
<path d="M 161.06 422.82 155.69 419.28 148.91 415.75 143.39 409.21 143.32 400.63 146.56 397.68 155.3 390.51 157.02 385.13 164.08 379.48 165.27 376.5 164.76 373.14 159.43 368.03 153.81 366.62 152.73 364.67 155.61 358.91 161.8 355.04 166.13 353.58 207.65 353.07 243.69 364.2 251.26 366.75 261.25 368.76 272.98 370.35 283.45 371.5 288.91 373.33 283.25 376.06 278.54 379.55 280.62 386.14 280.62 390.47 286.65 394.52 292.49 396.12 297.57 398.95 300.68 404.13 302.09 407.9 304.92 413.08 306.33 416.66 311.04 421.65 312.08 425.8 318.67 431.26 319.99 435.69 322.85 437.76 324.49 444.68 324.84 452.09 313.98 453.64 304.35 456.97 300.02 458.48 293.62 463.28 288.72 468.84 291.64 473.27 289 477.79 284.1 482.69 278.92 485.61 273.83 488.81 263.94 491.17 258.95 495.97 254.62 498.14 243.5 498.42 233.23 497.19 228.15 496.35 221.36 493 208.81 493.19 203.42 495.83 203.56 488.06 200.73 484.53 196.64 482.55 194 475.2 173.32 456.97 162.61 440.86 160.92 427.34 161.06 422.82 Z" fill="#888"/>
<path d="M 187.64 1175.69 180.71 1184.06 180.29 1186.49 181.88 1191.44 179.02 1198.55 175.5 1201.69 170.69 1203.34 167.72 1202.81 165.06 1201.63 162.08 1201.57 159.07 1203.96 151.6 1204.74 149.09 1206.92 147.78 1211.34 146.24 1212.78 140.9 1214.36 136.66 1216.26 134.74 1218.68 135.29 1220.58 137.31 1222.48 137.15 1225.35 133.05 1226.25 130.24 1237.86 131.46 1246.7 127.49 1256.09 119.35 1267.39 110.83 1275.34 100.77 1282.16 100.77 1293.79 76.69 1304.39 46.76 1307.41 1 1307.35 1 851.58 9.67 851.69 53.62 852.65 66.85 848.24 90.4 848.43 113.98 855.6 151.65 867.26 171.32 874.53 184.77 882.22 191.11 888.75 199.19 895.93 200.6 899.77 197.59 902.05 182.98 909.96 176.7 915.02 175.93 920.53 182.98 931.04 192.33 933.79 196.5 936.32 207.13 944.59 211.49 949.71 204.7 949.14 197.33 950.1 190.86 952.92 186.25 957.08 186.12 961.31 189.73 965.59 194.96 967.11 199.54 967.76 196.8 969.85 191.89 972.02 188.15 976.86 186.42 980.58 183.1 985.7 181.82 998.06 180.76 1007.32 172.82 1017.09 166.99 1020.08 158.47 1021.83 152.16 1023.62 150.3 1024.87 149.27 1033.27 148.87 1037.76 147.8 1041.31 138.96 1051.17 135.55 1055.65 124.54 1056.04 116.53 1056.33 112.24 1058.48 106.03 1072.41 116.47 1077.86 125.25 1082.08 131.4 1087.11 133.9 1090.19 136.44 1093.5 135.31 1094.16 134.39 1095 133.69 1095.96 133.35 1096.99 133.12 1098.07 132.62 1099.42 132.25 1100.78 132.21 1101.96 132.55 1103.04 134.37 1104.13 139.64 1105.83 142.96 1108.61 143.91 1109.67 144.76 1110.76 145.52 1111.88 145.8 1112.34 146.04 1112.81 146.26 1113.3 146.42 1113.8 146.53 1114.29 146.56 1114.78 146.37 1115.62 146.05 1116.44 145.59 1117.26 145.13 1118.08 144.82 1118.9 144.64 1119.74 144.67 1120.66 144.85 1121.59 145.1 1122.54 145.49 1123.45 145.97 1124.23 146.64 1124.87 147.6 1125.27 148.69 1125.51 149.99 1125.6 151.3 1125.66 152.54 1125.82 153.72 1126.12 154.78 1126.7 155.8 1127.38 156.2 1127.77 156.56 1128.18 156.91 1128.75 157.17 1129.34 157.37 1129.97 157.5 1130.62 157.59 1131.25 157.6 1131.89 157.44 1132.79 157.18 1133.68 156.81 1134.58 156.44 1135.47 156.18 1136.36 156.07 1137.26 156.19 1137.91 156.39 1138.56 156.56 1138.86 156.76 1139.13 158.56 1140.65 160.62 1141.96 163 1143.13 165.45 1144.24 167.79 1145.44 170.06 1146.73 170.84 1147.26 171.58 1147.82 172.32 1148.39 173.03 1148.98 173.68 1149.6 174.29 1150.24 174.64 1150.65 174.96 1151.06 175.26 1151.5 175.52 1151.94 175.73 1152.39 175.86 1152.85 175.81 1153.93 175.57 1155.01 175.16 1156.12 174.82 1157.23 174.75 1158.11 175 1158.87 175.83 1159.24 176.88 1159.42 178.26 1159.44 179.66 1159.41 180.99 1159.5 182.29 1159.71 182.8 1159.9 183.29 1160.14 183.77 1160.41 184.22 1160.71 184.62 1161.03 184.96 1161.38 185.73 1162.42 186.34 1163.54 186.83 1164.74 187.21 1165.98 187.54 1167.21 187.75 1168.45 187.74 1169.73 187.61 1171.01 187.33 1172.31 187.14 1173.61 187.34 1174.65 187.64 1175.69 Z" fill="#888"/>
<path d="M 288.91 373.33 295.97 374.08 303.41 374.27 307.65 374.65 314.25 380.96 313.21 383.6 308.01 389.64 308.01 393.58 314.54 396.18 321.08 394.69 363.55 394.73 367.3 394.16 366.15 388.68 365.86 383.25 370.76 381.52 379.22 376.76 394.88 375.9 402.77 375.42 414.02 373.97 415.03 377.69 413.85 381.33 412.68 384.62 411.77 387.37 411.25 390.1 411.63 392.26 412.58 394.3 414.72 396.17 416.42 398.02 415.93 399.09 415.41 400.19 416.64 401.54 417.71 402.83 416.81 404 415.24 405.05 408.81 407.51 403.72 410.25 403.65 411.26 404.14 412.33 406.58 413.99 408.33 415.45 407.2 416.43 405.26 417.24 402.62 417.64 400.24 418.19 399.45 419.4 398.77 420.77 393.75 424.83 388.13 428.58 383.04 433.22 377.21 437.77 363.75 446.42 354.59 452.89 344.47 460.45 333.77 465.22 322.88 467.27 320.44 470.47 319.29 480.21 317.43 496.85 314.23 499.37 302.05 503.39 291.8 508.13 282.38 509.8 275.6 507.12 272.77 506.33 265.6 506.11 257.33 508.09 237.02 512.55 229.98 514.21 221.65 514.48 215.71 512.93 208.22 512.93 203.84 510.52 205.68 507.13 210.34 502.89 207.23 500.07 203.42 495.83 208.81 493.19 221.36 493 228.15 496.35 233.23 497.19 243.5 498.42 254.62 498.14 258.95 495.97 263.94 491.17 273.83 488.81 278.92 485.61 284.1 482.69 289 477.79 291.64 473.27 288.72 468.84 293.62 463.28 300.02 458.48 304.35 456.97 313.98 453.64 324.84 452.09 324.49 444.68 322.85 437.76 319.99 435.69 318.67 431.26 312.08 425.8 311.04 421.65 306.33 416.66 304.92 413.08 302.09 407.9 300.68 404.13 297.57 398.95 292.49 396.12 286.65 394.52 280.62 390.47 280.62 386.14 278.54 379.55 283.25 376.06 288.91 373.33 Z" fill="#888"/>
<path d="M 1 117.1 2.65 117.65 2.55 121.54 1 123.83 1 117.1 Z" fill="#888"/>
<path d="M 578.9 690.22 583.37 688.94 588.17 688.09 593.42 687.93 599.92 688.78 607.13 689.77 611.23 689.56 615.76 688.44 622.75 686.22 624.93 685.28 633.06 683.51 640.06 682.41 650.36 682.31 658.66 683.51 665.56 684.61 670.56 686.11 672.11 686.45 676.16 687.31 698.37 690.69 709.37 692.54 719.13 692.92 728.76 693.56 730.71 694.17 731.24 694.18 733.56 695.06 738.63 697.81 743.49 700.83 744.44 701.13 747.35 702.17 751.3 703.32 762.3 704.65 773.43 705.73 778.46 706.66 783.36 707.85 785.94 708.58 788.32 709.55 790.67 711.38 792.8 713.41 773.25 977.02 717.44 994.4 614.08 986.86 567.24 975.33 563.78 848.69 469.74 792.71 470.45 776.92 520.84 735.05 528.47 689.27 578.9 690.22 Z" fill="#888"/>
<path d="M 128.15 750.14 138.81 733.69 221.76 732.1 307.64 757.11 433.98 786.57 434.34 867.3 405.17 899.02 369.42 899.45 357.57 906.5 350.52 909.77 338.86 911.63 328.55 911.24 315.67 908.42 292.41 897.02 280.55 892.51 269.09 893.18 258.71 890.55 247.82 885.17 237.44 888.63 224.88 889.52 214.89 893.18 200.6 899.77 199.19 895.93 191.11 888.75 184.77 882.22 171.32 874.53 151.65 867.26 163.61 856.79 168.85 852.74 175.77 848.21 175.05 846.54 169.21 842.37 173.34 833.34 177.51 823.81 177.23 822.04 177.02 820.3 177.63 819.35 178.25 818.39 178.29 817.35 178.01 816.3 176.52 813.3 174.16 811.01 168.93 810.61 163.15 810.64 161.39 810.09 159.79 809.26 158.24 808.17 157.19 806.88 157.19 805.76 157.61 804.62 159.71 801.63 161.9 798.64 163.87 793.75 164.73 788.69 164.68 787.68 164.27 786.83 162.8 786.2 161.06 786.06 158.55 787.14 156.03 788.33 155.09 788.36 154.17 788.17 150.11 785.72 146.54 782.57 144.67 780.37 142.6 778.49 139.41 777.96 136.03 777.58 134.2 776.86 132.87 775.84 132.94 773.06 133.32 770.07 131.92 768.23 130.59 766.39 131.31 763.52 131.84 760.76 129.17 758.7 126.69 756.7 127.39 755.17 128.47 753.51 128.43 751.85 128.15 750.14 Z" fill="#888"/>
<path d="M 27.11 1462 42.9 1426.82 69.41 1389.72 68.35 1343.08 76.69 1304.39 100.77 1293.79 100.77 1282.16 110.83 1275.34 119.35 1267.39 127.49 1256.09 131.46 1246.7 130.24 1237.86 133.05 1226.25 137.15 1225.35 137.31 1222.48 135.29 1220.58 134.74 1218.68 136.66 1216.26 140.9 1214.36 146.24 1212.78 147.78 1211.34 149.09 1206.92 151.6 1204.74 159.07 1203.96 162.08 1201.57 165.06 1201.63 167.72 1202.81 170.69 1203.34 175.5 1201.69 167.69 1210 156.47 1230.45 150.42 1241.98 153.57 1252.69 153.93 1269.47 146.64 1298.7 148.53 1333.36 146.64 1368.02 139.71 1388.18 131.51 1420.32 120.17 1439.23 111.35 1454.98 110.47 1462 27.11 1462 Z" fill="#888"/>
<path d="M 402.84 1454.73 364.18 1462 359.15 1462 350.61 1455.4 342.95 1449.47 306.4 1447.89 274.89 1415.12 266.69 1370.38 268.27 1320.6 273 1287.83 295.58 1257.95 295.81 1257.5 309.93 1230.15 337.54 1227.54 346.74 1223.61 351 1219.91 351.89 1218.02 359.9 1202.89 379.22 1206.25 381.39 1245.51 390.57 1257.87 422.06 1253.88 420.87 1288.57 405.52 1378.68 415.69 1425.33 402.84 1454.73 Z" fill="#888"/>
<path d="M 332.98 1462 332.98 1460.55 335.89 1457.9 337.75 1459.22 340.66 1457.1 343.84 1455.78 350.61 1455.4 359.15 1462 332.98 1462 Z M 364.18 1462 402.84 1454.73 392.37 1462 364.18 1462 Z" fill-rule="evenodd" fill="#888"/>
<path d="M 309.93 1230.15 295.96 1257.29 295.81 1257.5 273 1287.83 268.27 1320.6 266.69 1370.38 274.89 1415.12 306.4 1447.89 342.95 1449.47 350.61 1455.4 343.84 1455.78 340.66 1457.1 337.75 1459.22 335.89 1457.9 332.98 1460.55 332.98 1462 110.47 1462 111.35 1454.98 120.17 1439.23 131.51 1420.32 139.71 1388.18 146.64 1368.02 148.53 1333.36 146.64 1298.7 153.93 1269.47 153.57 1252.69 150.42 1241.98 156.47 1230.45 167.69 1210 175.5 1201.69 179.02 1198.55 181.88 1191.44 180.29 1186.49 180.71 1184.06 187.64 1175.69 188.3 1176.08 190.29 1176.57 193.64 1176.81 197.9 1175.57 202.19 1171.91 207.32 1169.4 211.63 1168.92 218.83 1169.2 228.9 1169.95 235.62 1172.86 240.3 1177.03 242.73 1178.02 247.24 1180.55 249.42 1184.7 248.74 1187.78 248.25 1188.23 246.57 1189.76 245.73 1192.09 244.94 1195.77 243.03 1197.84 243.62 1200.78 248.43 1203.62 253.76 1204.95 254.86 1205.18 255.94 1205.45 256.88 1205.75 257.78 1206.12 260.08 1208.2 260.74 1211 261.34 1214.7 263.92 1218.03 265.56 1220.23 265.8 1220.89 265.81 1221.51 265.28 1222.12 279.56 1228.88 309.93 1230.15 Z" fill="#888"/>
</g>
</svg>