<?xml version="1.0"?>
<svg xmlns="http://www.w3.org/2000/svg" version="1.2" baseProfile="tiny" width="800" height="994" viewBox="0 0 800 994" stroke-linecap="round" stroke-linejoin="round">
<g id="layer">
<path d="M 250.16 1.75 252.84 6.19 252.67 9.55 249.07 15.33 244.97 17.42 245.47 21.02 249.91 23.37 257.61 23.96 264.82 24.96 270.18 23.45 276.71 21.28 282.99 21.53 288.43 21.69 292.79 22.7 295.97 27.56 297.31 31.25 296.97 34.93 296.55 39.96 296.55 43.31 295.21 46.16 292.53 47.25 292.28 49.68 290.19 51.6 286.17 52.61 285.5 54.54 281.06 54.96 277.38 58.22 264.9 56.72 262.89 51.44 258.62 48.17 254.1 44.23 250.58 40.96 244.63 36.78 241.45 35.94 239.78 31.41 233.41 30.24 228.81 27.06 227.97 19.6 226.8 16.42 225.46 12.48 229.14 8.46 231.4 8.29 239.53 2.93 246.06 1 250.16 1.75 Z" fill="#8f8"/>
<path d="M 278.47 97.94 281.56 97.77 287.68 98.52 290.94 100.95 294.13 103.05 295.72 106.06 295.21 108.32 292.45 110.34 289.6 111.76 285.67 113.69 280.89 113.27 278.38 111.68 275.53 109.08 269.92 105.64 271.1 104.3 274.61 99.11 278.47 97.94 Z" fill="#8f8"/>
<path d="M 336.54 156.69 336.25 156.16 344.24 155.95 353.54 157.21 354.88 161.11 354.64 161.2 355.38 161.82 358.98 165.84 355.47 164.67 351.32 164.33 351.04 164.07 348.98 165.25 351.19 167.56 348.6 168.4 340.77 168.52 336.21 168.23 335.91 163.03 328.67 160.6 334.2 157.71 336.54 156.69 Z" fill="#8f8"/>
<path d="M 585.37 616.43 584.96 616.58 585.52 614.93 586.9 612.56 588.87 609.76 591.07 605.9 591.22 604.54 592.47 602.87 591.24 601.44 591.61 601.21 591.72 596.98 593.88 596.94 596.03 601.38 599.24 604.23 598.67 608.29 596.37 611.31 592.62 612.52 589.92 613.63 585.67 616.67 585.37 616.43 Z" fill="#8f8"/>
<path d="M 527.39 422.09 534.13 425.77 537.27 432.18 531.87 434.4 526.76 436.79 517.63 436.83 514.62 436.79 511.14 435.37 504.44 437.59 495.4 434.44 492.47 430.34 492.93 424.31 494.35 422.42 498.96 425.44 504.94 425.44 513.36 425.27 521.06 425.31 526.21 423.72 527.39 422.09 Z" fill="#8f8"/>
<path d="M 213.4 156.83 215.62 155.7 219.68 154.4 224.58 153.9 228.01 154.32 227.93 158.59 227.51 161.78 226.13 163.62 224.24 164.71 220.89 164.88 216.25 163.33 213.27 161.36 212.52 158.68 213.4 156.83 Z" fill="#8f8"/>
<path d="M 160.6 256.37 167.09 256.41 170.65 254.56 172.78 256.03 176.76 255.57 181.2 255.86 185.09 257.29 187.15 259.34 187.15 261.52 186.98 263.19 188.03 263.49 189.91 265.46 182.83 265.58 175.09 265.41 174.04 263.4 171.61 263.15 169.14 262.06 163.61 260.72 161.02 258.67 160.6 256.37 Z" fill="#8f8"/>
<path d="M 759.22 234.29 762.91 230.02 767.35 228.51 771.62 226.41 775.47 218.87 787.19 219.29 793.31 212.42 798.25 212.26 799 217.53 795.57 223.4 790.21 228.01 786.19 234.04 784.18 235.21 782.75 242.5 780.41 244.51 773.38 246.19 768.35 249.12 762.82 248.62 758.64 244.01 757.63 238.48 759.22 234.29 Z" fill="#8f8"/>
<path d="M 282.69 207.27 282.9 209.91 284.75 213.18 286.92 214.39 289.65 216.19 291.07 218.58 290.27 219.33 286.92 219.29 283.57 219.42 280.14 219.38 280.14 217.2 276.79 215.36 276.37 212.55 277.84 209.16 282.69 207.27 Z" fill="#8f8"/>
<path d="M 507.54 940.69 510.09 944 507.92 945.59 507.33 947.48 503.6 949.28 502.18 948.82 498.79 948.82 498.7 950.87 494.64 949.87 495.56 948.23 493.97 947.73 496.11 944.38 498.29 945.01 502.98 941.87 504.27 942.33 506.03 942.08 505.86 941.11 507.54 940.69 Z" fill="#8f8"/>
<path d="M 574.82 693.25 574.81 696.19 572.9 698.74 570.83 701.07 570.11 701.42 568.64 701.14 566.9 701.29 564.83 701.44 563.16 701.35 562.68 701.87 562.3 701.92 561.22 702.27 560.26 702.99 559.93 702.93 558.93 702.18 557.98 702.17 557.87 702.31 557.24 702.41 557.05 702.22 556.74 702.15 556.62 702.23 556.35 702.22 553.75 703.03 550.78 702.29 546.75 701.28 545.5 700.19 546.39 698.7 547.52 698.38 547.48 697.53 548.54 696.86 549.83 696.9 550.4 697.2 551.18 697.11 552.01 696.65 553.71 696.63 554.56 697.51 556.29 697.62 556.78 697.21 557.93 696.67 558.69 695.62 559.3 695.29 559.6 694.51 560.94 693.34 561.54 693.18 561.88 692.74 561.93 692.17 563.08 691.11 564.81 691.15 565.43 691.53 565.73 692.08 566.81 692.21 567.39 692.61 569.83 692.45 570.97 691.82 573 691.82 573.41 692.05 573.41 692.58 573.62 692.77 574.45 692.86 574.82 693.25 Z" fill="#888"/>
<path d="M 575.08 721.71 575.06 721.7 575.05 721.7 575.04 721.7 575.02 721.71 575.01 721.7 575.01 721.71 575.01 721.72 575.01 721.72 575 721.72 574.99 721.72 574.98 721.71 574.97 721.72 574.97 721.72 574.96 721.71 574.96 721.71 574.95 721.71 574.94 721.71 574.93 721.71 574.93 721.71 574.93 721.72 574.91 721.71 574.9 721.71 574.89 721.7 574.89 721.7 574.9 721.69 574.9 721.69 574.9 721.68 574.89 721.68 574.89 721.68 574.88 721.68 574.86 721.68 574.84 721.69 574.83 721.69 574.81 721.68 574.8 721.67 574.81 721.65 574.82 721.64 574.83 721.63 574.82 721.61 574.82 721.6 574.83 721.58 574.84 721.57 574.84 721.56 574.86 721.55 574.86 721.54 574.86 721.52 574.84 721.51 574.82 721.5 574.8 721.49 574.78 721.48 574.79 721.47 574.8 721.45 574.81 721.44 574.79 721.43 574.78 721.42 574.78 721.41 574.77 721.4 574.76 721.38 574.77 721.37 574.77 721.36 574.78 721.35 574.79 721.34 574.81 721.33 574.82 721.32 574.83 721.32 574.85 721.32 574.86 721.33 574.87 721.33 574.89 721.32 574.9 721.32 574.9 721.31 574.91 721.29 574.92 721.28 574.94 721.27 574.96 721.27 574.98 721.27 575 721.28 575.01 721.29 575.01 721.29 575.01 721.3 575.01 721.31 575.02 721.33 575.03 721.34 575.04 721.34 575.06 721.35 575.06 721.34 575.07 721.34 575.09 721.33 575.09 721.32 575.09 721.31 575.1 721.29 575.12 721.27 575.13 721.27 575.15 721.27 575.17 721.27 575.19 721.26 575.21 721.26 575.23 721.27 575.25 721.27 575.29 721.3 575.29 721.31 575.29 721.31 575.3 721.33 575.3 721.34 575.31 721.36 575.32 721.37 575.33 721.37 575.33 721.39 575.33 721.4 575.32 721.41 575.3 721.42 575.29 721.43 575.29 721.44 575.28 721.45 575.28 721.45 575.28 721.46 575.26 721.46 575.26 721.46 575.25 721.47 575.23 721.49 575.22 721.49 575.2 721.51 575.2 721.51 575.18 721.52 575.18 721.54 575.18 721.55 575.16 721.55 575.15 721.56 575.14 721.56 575.13 721.56 575.14 721.57 575.15 721.58 575.16 721.58 575.17 721.58 575.18 721.58 575.18 721.59 575.18 721.59 575.18 721.59 575.16 721.6 575.14 721.61 575.14 721.62 575.14 721.62 575.11 721.65 575.11 721.68 575.08 721.71 Z" fill="#888"/>
<path d="M 549.28 702.61 551.51 703.72 554.06 703.78 555.76 704.13 556.24 704.58 556.03 705.38 556.01 706.21 555.68 706.58 552.72 706.94 547.68 706.03 546.46 705.05 544.02 703.99 541.22 701.73 543.2 701.8 543.68 702.24 544.35 702.2 545.38 701.64 549.28 702.61 Z" fill="#888"/>
<path d="M 1 896.12 4.57 896.32 5.9 903.91 6.07 909.38 13.83 910.97 19.3 915.73 18.24 922.61 17.1 930.03 21.24 931.61 25.3 934.61 23.36 937.09 18.24 939.56 14.36 940.09 1 938.96 1 896.12 Z M 1 953.17 7.84 951.38 15.24 948.56 22.3 950.85 22.3 954.56 18.6 958.09 13.3 959.15 6.42 961.44 9.78 963.03 13.48 961.44 20.89 961.44 26.71 961.09 31.47 959.32 36.24 961.44 33.41 965.5 27.42 970.09 19.3 969.91 14.36 970.97 6.78 972.91 1 972.42 1 953.17 Z M 1 988.27 3.78 990.91 1 993 1 988.27 Z" fill-rule="evenodd" fill="#888"/>
</g>
</svg>